<mxfile host="Electron" agent="Mozilla/5.0 (Windows NT 10.0; Win64; x64) AppleWebKit/537.36 (KHTML, like Gecko) draw.io/24.7.8 Chrome/128.0.6613.36 Electron/32.0.1 Safari/537.36" version="24.7.8" pages="2">
  <diagram id="C5RBs43oDa-KdzZeNtuy" name="MENU UTAMA">
    <mxGraphModel dx="1674" dy="836" grid="1" gridSize="10" guides="1" tooltips="1" connect="1" arrows="1" fold="1" page="1" pageScale="1" pageWidth="827" pageHeight="1169" math="0" shadow="0">
      <root>
        <mxCell id="WIyWlLk6GJQsqaUBKTNV-0" />
        <mxCell id="WIyWlLk6GJQsqaUBKTNV-1" parent="WIyWlLk6GJQsqaUBKTNV-0" />
        <mxCell id="BOLqXezlnL5qrGqhOA5p-4" value="" style="edgeStyle=orthogonalEdgeStyle;rounded=0;orthogonalLoop=1;jettySize=auto;html=1;" parent="WIyWlLk6GJQsqaUBKTNV-1" source="BOLqXezlnL5qrGqhOA5p-0" target="BOLqXezlnL5qrGqhOA5p-2" edge="1">
          <mxGeometry relative="1" as="geometry" />
        </mxCell>
        <mxCell id="BOLqXezlnL5qrGqhOA5p-0" value="START" style="strokeWidth=2;html=1;shape=mxgraph.flowchart.terminator;whiteSpace=wrap;" parent="WIyWlLk6GJQsqaUBKTNV-1" vertex="1">
          <mxGeometry x="364" y="30" width="100" height="60" as="geometry" />
        </mxCell>
        <mxCell id="BOLqXezlnL5qrGqhOA5p-10" value="" style="edgeStyle=orthogonalEdgeStyle;rounded=0;orthogonalLoop=1;jettySize=auto;html=1;" parent="WIyWlLk6GJQsqaUBKTNV-1" source="BOLqXezlnL5qrGqhOA5p-2" target="BOLqXezlnL5qrGqhOA5p-9" edge="1">
          <mxGeometry relative="1" as="geometry" />
        </mxCell>
        <mxCell id="BOLqXezlnL5qrGqhOA5p-2" value="&lt;font style=&quot;font-size: 11px;&quot;&gt;1.LOGIN&lt;/font&gt;&lt;div style=&quot;font-size: 11px;&quot;&gt;&lt;font style=&quot;font-size: 11px;&quot;&gt;2.REGISTER&lt;/font&gt;&lt;/div&gt;&lt;div style=&quot;font-size: 11px;&quot;&gt;&lt;font style=&quot;font-size: 11px;&quot;&gt;3.KELUAR&lt;/font&gt;&lt;/div&gt;" style="shape=parallelogram;html=1;strokeWidth=2;perimeter=parallelogramPerimeter;whiteSpace=wrap;rounded=1;arcSize=12;size=0.23;" parent="WIyWlLk6GJQsqaUBKTNV-1" vertex="1">
          <mxGeometry x="364" y="130" width="100" height="60" as="geometry" />
        </mxCell>
        <mxCell id="BOLqXezlnL5qrGqhOA5p-3" style="edgeStyle=orthogonalEdgeStyle;rounded=0;orthogonalLoop=1;jettySize=auto;html=1;exitX=0.5;exitY=1;exitDx=0;exitDy=0;exitPerimeter=0;" parent="WIyWlLk6GJQsqaUBKTNV-1" source="BOLqXezlnL5qrGqhOA5p-0" target="BOLqXezlnL5qrGqhOA5p-0" edge="1">
          <mxGeometry relative="1" as="geometry" />
        </mxCell>
        <mxCell id="BOLqXezlnL5qrGqhOA5p-7" value="" style="endArrow=classic;html=1;rounded=0;exitX=0.75;exitY=1;exitDx=0;exitDy=0;" parent="WIyWlLk6GJQsqaUBKTNV-1" source="BOLqXezlnL5qrGqhOA5p-2" edge="1">
          <mxGeometry width="50" height="50" relative="1" as="geometry">
            <mxPoint x="400" y="310" as="sourcePoint" />
            <mxPoint x="470" y="190" as="targetPoint" />
          </mxGeometry>
        </mxCell>
        <mxCell id="BOLqXezlnL5qrGqhOA5p-13" value="" style="edgeStyle=orthogonalEdgeStyle;rounded=0;orthogonalLoop=1;jettySize=auto;html=1;" parent="WIyWlLk6GJQsqaUBKTNV-1" source="BOLqXezlnL5qrGqhOA5p-9" target="BOLqXezlnL5qrGqhOA5p-12" edge="1">
          <mxGeometry relative="1" as="geometry" />
        </mxCell>
        <mxCell id="BOLqXezlnL5qrGqhOA5p-16" value="" style="edgeStyle=orthogonalEdgeStyle;rounded=0;orthogonalLoop=1;jettySize=auto;html=1;" parent="WIyWlLk6GJQsqaUBKTNV-1" source="BOLqXezlnL5qrGqhOA5p-9" edge="1">
          <mxGeometry relative="1" as="geometry">
            <mxPoint x="414" y="390" as="targetPoint" />
          </mxGeometry>
        </mxCell>
        <mxCell id="BOLqXezlnL5qrGqhOA5p-9" value="INPUT = 1" style="strokeWidth=2;html=1;shape=mxgraph.flowchart.decision;whiteSpace=wrap;" parent="WIyWlLk6GJQsqaUBKTNV-1" vertex="1">
          <mxGeometry x="364" y="240" width="100" height="100" as="geometry" />
        </mxCell>
        <mxCell id="BOLqXezlnL5qrGqhOA5p-20" value="" style="edgeStyle=orthogonalEdgeStyle;rounded=0;orthogonalLoop=1;jettySize=auto;html=1;entryX=0.5;entryY=0;entryDx=0;entryDy=0;entryPerimeter=0;" parent="WIyWlLk6GJQsqaUBKTNV-1" source="BOLqXezlnL5qrGqhOA5p-11" target="BOLqXezlnL5qrGqhOA5p-24" edge="1">
          <mxGeometry relative="1" as="geometry">
            <mxPoint x="729.9999999999998" y="380.0000000000001" as="targetPoint" />
          </mxGeometry>
        </mxCell>
        <mxCell id="BOLqXezlnL5qrGqhOA5p-11" value="INPUT = 0" style="strokeWidth=2;html=1;shape=mxgraph.flowchart.decision;whiteSpace=wrap;" parent="WIyWlLk6GJQsqaUBKTNV-1" vertex="1">
          <mxGeometry x="680" y="240" width="100" height="100" as="geometry" />
        </mxCell>
        <mxCell id="BOLqXezlnL5qrGqhOA5p-14" value="" style="edgeStyle=orthogonalEdgeStyle;rounded=0;orthogonalLoop=1;jettySize=auto;html=1;" parent="WIyWlLk6GJQsqaUBKTNV-1" source="BOLqXezlnL5qrGqhOA5p-12" target="BOLqXezlnL5qrGqhOA5p-11" edge="1">
          <mxGeometry relative="1" as="geometry" />
        </mxCell>
        <mxCell id="BOLqXezlnL5qrGqhOA5p-19" value="" style="edgeStyle=orthogonalEdgeStyle;rounded=0;orthogonalLoop=1;jettySize=auto;html=1;" parent="WIyWlLk6GJQsqaUBKTNV-1" source="BOLqXezlnL5qrGqhOA5p-12" edge="1">
          <mxGeometry relative="1" as="geometry">
            <mxPoint x="570" y="390" as="targetPoint" />
          </mxGeometry>
        </mxCell>
        <mxCell id="BOLqXezlnL5qrGqhOA5p-12" value="INPUT = 2" style="strokeWidth=2;html=1;shape=mxgraph.flowchart.decision;whiteSpace=wrap;" parent="WIyWlLk6GJQsqaUBKTNV-1" vertex="1">
          <mxGeometry x="520" y="240" width="100" height="100" as="geometry" />
        </mxCell>
        <mxCell id="BOLqXezlnL5qrGqhOA5p-24" value="END" style="strokeWidth=2;html=1;shape=mxgraph.flowchart.terminator;whiteSpace=wrap;" parent="WIyWlLk6GJQsqaUBKTNV-1" vertex="1">
          <mxGeometry x="680" y="390" width="100" height="60" as="geometry" />
        </mxCell>
        <mxCell id="HMHyvj5eMhIeY2_JDXBc-0" value="" style="endArrow=classic;html=1;rounded=0;exitX=0.5;exitY=1;exitDx=0;exitDy=0;entryX=0;entryY=0.25;entryDx=0;entryDy=0;" parent="WIyWlLk6GJQsqaUBKTNV-1" target="BOLqXezlnL5qrGqhOA5p-2" edge="1">
          <mxGeometry width="50" height="50" relative="1" as="geometry">
            <mxPoint x="570" y="450" as="sourcePoint" />
            <mxPoint x="480" y="270" as="targetPoint" />
            <Array as="points">
              <mxPoint x="570" y="530" />
              <mxPoint x="240" y="530" />
              <mxPoint x="250" y="150" />
            </Array>
          </mxGeometry>
        </mxCell>
        <mxCell id="Cn-tOk0Qb_ZwyW2ITqxa-0" value="" style="edgeStyle=orthogonalEdgeStyle;rounded=0;orthogonalLoop=1;jettySize=auto;html=1;exitX=0.5;exitY=1;exitDx=0;exitDy=0;" parent="WIyWlLk6GJQsqaUBKTNV-1" target="Cn-tOk0Qb_ZwyW2ITqxa-2" edge="1">
          <mxGeometry relative="1" as="geometry">
            <mxPoint x="410" y="810" as="sourcePoint" />
          </mxGeometry>
        </mxCell>
        <mxCell id="Cn-tOk0Qb_ZwyW2ITqxa-1" value="" style="group" parent="WIyWlLk6GJQsqaUBKTNV-1" vertex="1" connectable="0">
          <mxGeometry x="310" y="860" width="170" height="100" as="geometry" />
        </mxCell>
        <mxCell id="Cn-tOk0Qb_ZwyW2ITqxa-2" value="&lt;font style=&quot;font-size: 10px;&quot;&gt;INPUT USER DAN PASSWORD&lt;/font&gt;" style="shape=parallelogram;html=1;strokeWidth=2;perimeter=parallelogramPerimeter;whiteSpace=wrap;rounded=1;arcSize=12;size=0.23;" parent="Cn-tOk0Qb_ZwyW2ITqxa-1" vertex="1">
          <mxGeometry x="28.333333333333336" width="141.66666666666666" height="100" as="geometry" />
        </mxCell>
        <mxCell id="Cn-tOk0Qb_ZwyW2ITqxa-3" value="" style="endArrow=classic;html=1;rounded=0;entryX=0.25;entryY=0;entryDx=0;entryDy=0;" parent="Cn-tOk0Qb_ZwyW2ITqxa-1" target="Cn-tOk0Qb_ZwyW2ITqxa-2" edge="1">
          <mxGeometry width="50" height="50" relative="1" as="geometry">
            <mxPoint as="sourcePoint" />
            <mxPoint x="127.5" y="266.66666666666663" as="targetPoint" />
          </mxGeometry>
        </mxCell>
        <mxCell id="Cn-tOk0Qb_ZwyW2ITqxa-4" value="" style="edgeStyle=orthogonalEdgeStyle;rounded=0;orthogonalLoop=1;jettySize=auto;html=1;" parent="WIyWlLk6GJQsqaUBKTNV-1" source="Cn-tOk0Qb_ZwyW2ITqxa-6" target="Cn-tOk0Qb_ZwyW2ITqxa-13" edge="1">
          <mxGeometry relative="1" as="geometry" />
        </mxCell>
        <mxCell id="Cn-tOk0Qb_ZwyW2ITqxa-5" value="YES" style="edgeLabel;html=1;align=center;verticalAlign=middle;resizable=0;points=[];" parent="Cn-tOk0Qb_ZwyW2ITqxa-4" vertex="1" connectable="0">
          <mxGeometry x="-0.248" y="1" relative="1" as="geometry">
            <mxPoint as="offset" />
          </mxGeometry>
        </mxCell>
        <mxCell id="Cn-tOk0Qb_ZwyW2ITqxa-6" value="LOGIN VALID?" style="strokeWidth=2;html=1;shape=mxgraph.flowchart.decision;whiteSpace=wrap;" parent="WIyWlLk6GJQsqaUBKTNV-1" vertex="1">
          <mxGeometry x="359.17" y="1020" width="100" height="100" as="geometry" />
        </mxCell>
        <mxCell id="Cn-tOk0Qb_ZwyW2ITqxa-7" value="" style="edgeStyle=orthogonalEdgeStyle;rounded=0;orthogonalLoop=1;jettySize=auto;html=1;" parent="WIyWlLk6GJQsqaUBKTNV-1" source="Cn-tOk0Qb_ZwyW2ITqxa-2" target="Cn-tOk0Qb_ZwyW2ITqxa-6" edge="1">
          <mxGeometry relative="1" as="geometry" />
        </mxCell>
        <mxCell id="Cn-tOk0Qb_ZwyW2ITqxa-8" value="" style="endArrow=classic;html=1;rounded=0;exitX=0;exitY=0.5;exitDx=0;exitDy=0;exitPerimeter=0;entryX=0;entryY=0.5;entryDx=0;entryDy=0;" parent="WIyWlLk6GJQsqaUBKTNV-1" source="Cn-tOk0Qb_ZwyW2ITqxa-6" target="Cn-tOk0Qb_ZwyW2ITqxa-2" edge="1">
          <mxGeometry width="50" height="50" relative="1" as="geometry">
            <mxPoint x="380" y="1070" as="sourcePoint" />
            <mxPoint x="250" y="900" as="targetPoint" />
            <Array as="points">
              <mxPoint x="250" y="1070" />
              <mxPoint x="250" y="910" />
            </Array>
          </mxGeometry>
        </mxCell>
        <mxCell id="Cn-tOk0Qb_ZwyW2ITqxa-9" value="NO" style="edgeLabel;html=1;align=center;verticalAlign=middle;resizable=0;points=[];" parent="Cn-tOk0Qb_ZwyW2ITqxa-8" vertex="1" connectable="0">
          <mxGeometry x="0.0079" y="3" relative="1" as="geometry">
            <mxPoint as="offset" />
          </mxGeometry>
        </mxCell>
        <mxCell id="Cn-tOk0Qb_ZwyW2ITqxa-10" value="" style="edgeStyle=orthogonalEdgeStyle;rounded=0;orthogonalLoop=1;jettySize=auto;html=1;exitX=1;exitY=0.5;exitDx=0;exitDy=0;entryX=0;entryY=0.5;entryDx=0;entryDy=0;" parent="WIyWlLk6GJQsqaUBKTNV-1" source="Cn-tOk0Qb_ZwyW2ITqxa-13" target="Cn-tOk0Qb_ZwyW2ITqxa-15" edge="1">
          <mxGeometry relative="1" as="geometry">
            <mxPoint x="470.00000000000006" y="1210" as="sourcePoint" />
            <mxPoint x="500.8299999999999" y="1210" as="targetPoint" />
          </mxGeometry>
        </mxCell>
        <mxCell id="Cn-tOk0Qb_ZwyW2ITqxa-11" value="NO" style="edgeLabel;html=1;align=center;verticalAlign=middle;resizable=0;points=[];" parent="Cn-tOk0Qb_ZwyW2ITqxa-10" vertex="1" connectable="0">
          <mxGeometry x="-0.1626" relative="1" as="geometry">
            <mxPoint as="offset" />
          </mxGeometry>
        </mxCell>
        <mxCell id="Cn-tOk0Qb_ZwyW2ITqxa-12" value="" style="edgeStyle=orthogonalEdgeStyle;rounded=0;orthogonalLoop=1;jettySize=auto;html=1;entryX=0.5;entryY=0;entryDx=0;entryDy=0;" parent="WIyWlLk6GJQsqaUBKTNV-1" source="Cn-tOk0Qb_ZwyW2ITqxa-13" target="Cn-tOk0Qb_ZwyW2ITqxa-24" edge="1">
          <mxGeometry relative="1" as="geometry" />
        </mxCell>
        <mxCell id="XxsP72birGc07tk92qJd-2" value="YES" style="edgeLabel;html=1;align=center;verticalAlign=middle;resizable=0;points=[];" parent="Cn-tOk0Qb_ZwyW2ITqxa-12" vertex="1" connectable="0">
          <mxGeometry x="-0.58" relative="1" as="geometry">
            <mxPoint as="offset" />
          </mxGeometry>
        </mxCell>
        <mxCell id="Cn-tOk0Qb_ZwyW2ITqxa-13" value="ROLE = OWNER" style="rhombus;whiteSpace=wrap;html=1;" parent="WIyWlLk6GJQsqaUBKTNV-1" vertex="1">
          <mxGeometry x="369.17" y="1170" width="80" height="80" as="geometry" />
        </mxCell>
        <mxCell id="Cn-tOk0Qb_ZwyW2ITqxa-15" value="ROLE = PEMBELI" style="rhombus;whiteSpace=wrap;html=1;" parent="WIyWlLk6GJQsqaUBKTNV-1" vertex="1">
          <mxGeometry x="505" y="1170" width="80" height="80" as="geometry" />
        </mxCell>
        <mxCell id="Cn-tOk0Qb_ZwyW2ITqxa-23" value="" style="group" parent="WIyWlLk6GJQsqaUBKTNV-1" vertex="1" connectable="0">
          <mxGeometry x="379.17" y="1290" width="65" height="60" as="geometry" />
        </mxCell>
        <mxCell id="Cn-tOk0Qb_ZwyW2ITqxa-24" value="" style="verticalLabelPosition=bottom;verticalAlign=top;html=1;shape=offPageConnector;rounded=0;size=0.5;" parent="Cn-tOk0Qb_ZwyW2ITqxa-23" vertex="1">
          <mxGeometry width="60" height="60" as="geometry" />
        </mxCell>
        <mxCell id="Cn-tOk0Qb_ZwyW2ITqxa-25" value="OWNER" style="text;html=1;align=center;verticalAlign=middle;resizable=0;points=[];autosize=1;strokeColor=none;fillColor=none;" parent="Cn-tOk0Qb_ZwyW2ITqxa-23" vertex="1">
          <mxGeometry x="-5" y="10" width="70" height="30" as="geometry" />
        </mxCell>
        <mxCell id="Cn-tOk0Qb_ZwyW2ITqxa-32" value="" style="verticalLabelPosition=bottom;verticalAlign=top;html=1;shape=mxgraph.flowchart.on-page_reference;" parent="WIyWlLk6GJQsqaUBKTNV-1" vertex="1">
          <mxGeometry x="384" y="390" width="60" height="60" as="geometry" />
        </mxCell>
        <mxCell id="Cn-tOk0Qb_ZwyW2ITqxa-33" value="1" style="text;html=1;align=center;verticalAlign=middle;resizable=0;points=[];autosize=1;strokeColor=none;fillColor=none;" parent="WIyWlLk6GJQsqaUBKTNV-1" vertex="1">
          <mxGeometry x="399" y="405" width="30" height="30" as="geometry" />
        </mxCell>
        <mxCell id="Cn-tOk0Qb_ZwyW2ITqxa-34" value="" style="verticalLabelPosition=bottom;verticalAlign=top;html=1;shape=mxgraph.flowchart.on-page_reference;" parent="WIyWlLk6GJQsqaUBKTNV-1" vertex="1">
          <mxGeometry x="379.17" y="750" width="60" height="60" as="geometry" />
        </mxCell>
        <mxCell id="Cn-tOk0Qb_ZwyW2ITqxa-35" value="1" style="text;html=1;align=center;verticalAlign=middle;resizable=0;points=[];autosize=1;strokeColor=none;fillColor=none;" parent="WIyWlLk6GJQsqaUBKTNV-1" vertex="1">
          <mxGeometry x="394.17" y="765" width="30" height="30" as="geometry" />
        </mxCell>
        <mxCell id="P_n39dslxSuX-OhbL0WB-0" value="" style="edgeStyle=orthogonalEdgeStyle;rounded=0;orthogonalLoop=1;jettySize=auto;html=1;" parent="WIyWlLk6GJQsqaUBKTNV-1" source="P_n39dslxSuX-OhbL0WB-15" target="P_n39dslxSuX-OhbL0WB-4" edge="1">
          <mxGeometry relative="1" as="geometry">
            <mxPoint x="1040" y="810" as="sourcePoint" />
          </mxGeometry>
        </mxCell>
        <mxCell id="P_n39dslxSuX-OhbL0WB-3" value="" style="edgeStyle=orthogonalEdgeStyle;rounded=0;orthogonalLoop=1;jettySize=auto;html=1;" parent="WIyWlLk6GJQsqaUBKTNV-1" source="P_n39dslxSuX-OhbL0WB-4" target="P_n39dslxSuX-OhbL0WB-7" edge="1">
          <mxGeometry relative="1" as="geometry" />
        </mxCell>
        <mxCell id="P_n39dslxSuX-OhbL0WB-4" value="INPUT USER" style="shape=parallelogram;html=1;strokeWidth=2;perimeter=parallelogramPerimeter;whiteSpace=wrap;rounded=1;arcSize=12;size=0.23;" parent="WIyWlLk6GJQsqaUBKTNV-1" vertex="1">
          <mxGeometry x="990" y="850" width="100" height="60" as="geometry" />
        </mxCell>
        <mxCell id="P_n39dslxSuX-OhbL0WB-5" value="" style="endArrow=classic;html=1;rounded=0;entryX=0.25;entryY=0;entryDx=0;entryDy=0;" parent="WIyWlLk6GJQsqaUBKTNV-1" target="P_n39dslxSuX-OhbL0WB-4" edge="1">
          <mxGeometry width="50" height="50" relative="1" as="geometry">
            <mxPoint x="950" y="850" as="sourcePoint" />
            <mxPoint x="1020" y="910" as="targetPoint" />
          </mxGeometry>
        </mxCell>
        <mxCell id="P_n39dslxSuX-OhbL0WB-6" value="" style="edgeStyle=orthogonalEdgeStyle;rounded=0;orthogonalLoop=1;jettySize=auto;html=1;" parent="WIyWlLk6GJQsqaUBKTNV-1" source="P_n39dslxSuX-OhbL0WB-7" target="P_n39dslxSuX-OhbL0WB-10" edge="1">
          <mxGeometry relative="1" as="geometry" />
        </mxCell>
        <mxCell id="XxsP72birGc07tk92qJd-0" value="YES" style="edgeLabel;html=1;align=center;verticalAlign=middle;resizable=0;points=[];" parent="P_n39dslxSuX-OhbL0WB-6" vertex="1" connectable="0">
          <mxGeometry x="-0.28" y="-1" relative="1" as="geometry">
            <mxPoint as="offset" />
          </mxGeometry>
        </mxCell>
        <mxCell id="P_n39dslxSuX-OhbL0WB-7" value="APAKAH USER TERSEDIA?" style="strokeWidth=2;html=1;shape=mxgraph.flowchart.decision;whiteSpace=wrap;" parent="WIyWlLk6GJQsqaUBKTNV-1" vertex="1">
          <mxGeometry x="990" y="960" width="100" height="100" as="geometry" />
        </mxCell>
        <mxCell id="P_n39dslxSuX-OhbL0WB-8" value="" style="endArrow=classic;html=1;rounded=0;exitX=0.052;exitY=0.412;exitDx=0;exitDy=0;exitPerimeter=0;entryX=0;entryY=0.5;entryDx=0;entryDy=0;" parent="WIyWlLk6GJQsqaUBKTNV-1" source="P_n39dslxSuX-OhbL0WB-7" target="P_n39dslxSuX-OhbL0WB-4" edge="1">
          <mxGeometry width="50" height="50" relative="1" as="geometry">
            <mxPoint x="970" y="990" as="sourcePoint" />
            <mxPoint x="1020" y="940" as="targetPoint" />
            <Array as="points">
              <mxPoint x="910" y="1000" />
              <mxPoint x="910" y="880" />
            </Array>
          </mxGeometry>
        </mxCell>
        <mxCell id="XxsP72birGc07tk92qJd-1" value="NO" style="edgeLabel;html=1;align=center;verticalAlign=middle;resizable=0;points=[];" parent="P_n39dslxSuX-OhbL0WB-8" vertex="1" connectable="0">
          <mxGeometry x="-0.0374" y="-1" relative="1" as="geometry">
            <mxPoint as="offset" />
          </mxGeometry>
        </mxCell>
        <mxCell id="P_n39dslxSuX-OhbL0WB-9" value="" style="edgeStyle=orthogonalEdgeStyle;rounded=0;orthogonalLoop=1;jettySize=auto;html=1;" parent="WIyWlLk6GJQsqaUBKTNV-1" source="P_n39dslxSuX-OhbL0WB-10" target="P_n39dslxSuX-OhbL0WB-13" edge="1">
          <mxGeometry relative="1" as="geometry" />
        </mxCell>
        <mxCell id="P_n39dslxSuX-OhbL0WB-10" value="INPUT PASSWORD" style="shape=parallelogram;html=1;strokeWidth=2;perimeter=parallelogramPerimeter;whiteSpace=wrap;rounded=1;arcSize=12;size=0.23;" parent="WIyWlLk6GJQsqaUBKTNV-1" vertex="1">
          <mxGeometry x="990" y="1100" width="100" height="60" as="geometry" />
        </mxCell>
        <mxCell id="P_n39dslxSuX-OhbL0WB-11" value="" style="endArrow=classic;html=1;rounded=0;entryX=0.25;entryY=0;entryDx=0;entryDy=0;" parent="WIyWlLk6GJQsqaUBKTNV-1" target="P_n39dslxSuX-OhbL0WB-10" edge="1">
          <mxGeometry width="50" height="50" relative="1" as="geometry">
            <mxPoint x="960" y="1100" as="sourcePoint" />
            <mxPoint x="1025" y="860" as="targetPoint" />
          </mxGeometry>
        </mxCell>
        <mxCell id="yXoekuu-qKmnkq5mKwvw-1" value="" style="edgeStyle=orthogonalEdgeStyle;rounded=0;orthogonalLoop=1;jettySize=auto;html=1;" parent="WIyWlLk6GJQsqaUBKTNV-1" source="P_n39dslxSuX-OhbL0WB-13" target="yXoekuu-qKmnkq5mKwvw-0" edge="1">
          <mxGeometry relative="1" as="geometry" />
        </mxCell>
        <mxCell id="P_n39dslxSuX-OhbL0WB-13" value="TAMBAH USER BARU" style="rounded=1;whiteSpace=wrap;html=1;absoluteArcSize=1;arcSize=14;strokeWidth=2;" parent="WIyWlLk6GJQsqaUBKTNV-1" vertex="1">
          <mxGeometry x="990" y="1210" width="100" height="40" as="geometry" />
        </mxCell>
        <mxCell id="P_n39dslxSuX-OhbL0WB-16" value="" style="edgeStyle=orthogonalEdgeStyle;rounded=0;orthogonalLoop=1;jettySize=auto;html=1;" parent="WIyWlLk6GJQsqaUBKTNV-1" target="P_n39dslxSuX-OhbL0WB-15" edge="1">
          <mxGeometry relative="1" as="geometry">
            <mxPoint x="1040" y="810" as="sourcePoint" />
            <mxPoint x="1040" y="850" as="targetPoint" />
          </mxGeometry>
        </mxCell>
        <mxCell id="P_n39dslxSuX-OhbL0WB-15" value="" style="verticalLabelPosition=bottom;verticalAlign=top;html=1;shape=mxgraph.flowchart.on-page_reference;" parent="WIyWlLk6GJQsqaUBKTNV-1" vertex="1">
          <mxGeometry x="1010" y="765" width="60" height="60" as="geometry" />
        </mxCell>
        <mxCell id="P_n39dslxSuX-OhbL0WB-17" value="2" style="text;html=1;align=center;verticalAlign=middle;resizable=0;points=[];autosize=1;strokeColor=none;fillColor=none;" parent="WIyWlLk6GJQsqaUBKTNV-1" vertex="1">
          <mxGeometry x="1025" y="780" width="30" height="30" as="geometry" />
        </mxCell>
        <mxCell id="P_n39dslxSuX-OhbL0WB-18" value="" style="edgeStyle=orthogonalEdgeStyle;rounded=0;orthogonalLoop=1;jettySize=auto;html=1;" parent="WIyWlLk6GJQsqaUBKTNV-1" target="P_n39dslxSuX-OhbL0WB-19" edge="1">
          <mxGeometry relative="1" as="geometry">
            <mxPoint x="570" y="435" as="sourcePoint" />
            <mxPoint x="570" y="475" as="targetPoint" />
          </mxGeometry>
        </mxCell>
        <mxCell id="P_n39dslxSuX-OhbL0WB-19" value="" style="verticalLabelPosition=bottom;verticalAlign=top;html=1;shape=mxgraph.flowchart.on-page_reference;" parent="WIyWlLk6GJQsqaUBKTNV-1" vertex="1">
          <mxGeometry x="540" y="390" width="60" height="60" as="geometry" />
        </mxCell>
        <mxCell id="P_n39dslxSuX-OhbL0WB-20" value="2" style="text;html=1;align=center;verticalAlign=middle;resizable=0;points=[];autosize=1;strokeColor=none;fillColor=none;" parent="WIyWlLk6GJQsqaUBKTNV-1" vertex="1">
          <mxGeometry x="555" y="405" width="30" height="30" as="geometry" />
        </mxCell>
        <mxCell id="UGJY73e3IxoJqhYqsfiN-5" value="" style="edgeStyle=orthogonalEdgeStyle;rounded=0;orthogonalLoop=1;jettySize=auto;html=1;entryX=0.5;entryY=0;entryDx=0;entryDy=0;exitX=0.5;exitY=1;exitDx=0;exitDy=0;" parent="WIyWlLk6GJQsqaUBKTNV-1" source="Cn-tOk0Qb_ZwyW2ITqxa-15" target="UGJY73e3IxoJqhYqsfiN-7" edge="1">
          <mxGeometry relative="1" as="geometry">
            <mxPoint x="542.3299999999999" y="1250" as="sourcePoint" />
          </mxGeometry>
        </mxCell>
        <mxCell id="XxsP72birGc07tk92qJd-4" value="YES" style="edgeLabel;html=1;align=center;verticalAlign=middle;resizable=0;points=[];" parent="UGJY73e3IxoJqhYqsfiN-5" vertex="1" connectable="0">
          <mxGeometry x="-0.3292" y="-1" relative="1" as="geometry">
            <mxPoint as="offset" />
          </mxGeometry>
        </mxCell>
        <mxCell id="UGJY73e3IxoJqhYqsfiN-6" value="" style="group" parent="WIyWlLk6GJQsqaUBKTNV-1" vertex="1" connectable="0">
          <mxGeometry x="512.5" y="1290" width="70" height="60" as="geometry" />
        </mxCell>
        <mxCell id="UGJY73e3IxoJqhYqsfiN-7" value="" style="verticalLabelPosition=bottom;verticalAlign=top;html=1;shape=offPageConnector;rounded=0;size=0.5;" parent="UGJY73e3IxoJqhYqsfiN-6" vertex="1">
          <mxGeometry width="60" height="60" as="geometry" />
        </mxCell>
        <mxCell id="UGJY73e3IxoJqhYqsfiN-8" value="PEMBELI" style="text;html=1;align=center;verticalAlign=middle;resizable=0;points=[];autosize=1;strokeColor=none;fillColor=none;" parent="UGJY73e3IxoJqhYqsfiN-6" vertex="1">
          <mxGeometry x="-10" y="10" width="80" height="30" as="geometry" />
        </mxCell>
        <mxCell id="yXoekuu-qKmnkq5mKwvw-0" value="END" style="strokeWidth=2;html=1;shape=mxgraph.flowchart.terminator;whiteSpace=wrap;" parent="WIyWlLk6GJQsqaUBKTNV-1" vertex="1">
          <mxGeometry x="990" y="1300" width="100" height="60" as="geometry" />
        </mxCell>
      </root>
    </mxGraphModel>
  </diagram>
  <diagram id="Zby2PunhTHg9YBzmv1Mp" name="MENU OWNER">
    <mxGraphModel dx="1674" dy="836" grid="1" gridSize="10" guides="1" tooltips="1" connect="1" arrows="1" fold="1" page="1" pageScale="1" pageWidth="900" pageHeight="1600" math="0" shadow="0">
      <root>
        <mxCell id="0" />
        <mxCell id="1" parent="0" />
        <mxCell id="u7DOHJphOixYkT2y7QyJ-4" value="" style="edgeStyle=orthogonalEdgeStyle;rounded=0;orthogonalLoop=1;jettySize=auto;html=1;" parent="1" source="u7DOHJphOixYkT2y7QyJ-1" target="u7DOHJphOixYkT2y7QyJ-3" edge="1">
          <mxGeometry relative="1" as="geometry" />
        </mxCell>
        <mxCell id="u7DOHJphOixYkT2y7QyJ-1" value="" style="verticalLabelPosition=bottom;verticalAlign=top;html=1;shape=offPageConnector;rounded=0;size=0.5;" parent="1" vertex="1">
          <mxGeometry x="360" y="30" width="60" height="60" as="geometry" />
        </mxCell>
        <mxCell id="u7DOHJphOixYkT2y7QyJ-2" value="OWNER" style="text;html=1;align=center;verticalAlign=middle;resizable=0;points=[];autosize=1;strokeColor=none;fillColor=none;" parent="1" vertex="1">
          <mxGeometry x="355" y="40" width="70" height="30" as="geometry" />
        </mxCell>
        <mxCell id="u7DOHJphOixYkT2y7QyJ-3" value="&lt;blockquote style=&quot;margin: 0px 20px; border: none; padding: 0px;&quot;&gt;1.TAMBAH PRODUK&lt;div style=&quot;&quot;&gt;2.LIHAT PRODUK&lt;/div&gt;&lt;div&gt;3.UPDATE PRODUK&lt;/div&gt;&lt;div style=&quot;&quot;&gt;4.HAPUS PRODUK&lt;/div&gt;&lt;div&gt;5.LIHAT PROFIT&lt;/div&gt;&lt;div&gt;6.KELUAR&lt;/div&gt;&lt;/blockquote&gt;" style="shape=parallelogram;html=1;strokeWidth=2;perimeter=parallelogramPerimeter;whiteSpace=wrap;rounded=1;arcSize=12;size=0.23;align=center;" parent="1" vertex="1">
          <mxGeometry x="300" y="150" width="180" height="120" as="geometry" />
        </mxCell>
        <mxCell id="u7DOHJphOixYkT2y7QyJ-5" value="" style="endArrow=classic;html=1;rounded=0;exitX=0.446;exitY=1.018;exitDx=0;exitDy=0;exitPerimeter=0;" parent="1" source="u7DOHJphOixYkT2y7QyJ-3" target="u7DOHJphOixYkT2y7QyJ-24" edge="1">
          <mxGeometry width="50" height="50" relative="1" as="geometry">
            <mxPoint x="410" y="340" as="sourcePoint" />
            <mxPoint x="380" y="310" as="targetPoint" />
          </mxGeometry>
        </mxCell>
        <mxCell id="u7DOHJphOixYkT2y7QyJ-9" value="" style="group" parent="1" vertex="1" connectable="0">
          <mxGeometry x="350" y="510" width="60" height="60" as="geometry" />
        </mxCell>
        <mxCell id="u7DOHJphOixYkT2y7QyJ-10" value="" style="verticalLabelPosition=bottom;verticalAlign=top;html=1;shape=mxgraph.flowchart.on-page_reference;" parent="u7DOHJphOixYkT2y7QyJ-9" vertex="1">
          <mxGeometry width="60" height="60" as="geometry" />
        </mxCell>
        <mxCell id="u7DOHJphOixYkT2y7QyJ-11" value="2" style="text;html=1;align=center;verticalAlign=middle;resizable=0;points=[];autosize=1;strokeColor=none;fillColor=none;" parent="u7DOHJphOixYkT2y7QyJ-9" vertex="1">
          <mxGeometry x="15" y="15" width="30" height="30" as="geometry" />
        </mxCell>
        <mxCell id="u7DOHJphOixYkT2y7QyJ-12" value="" style="group" parent="1" vertex="1" connectable="0">
          <mxGeometry x="630" y="510" width="60" height="60" as="geometry" />
        </mxCell>
        <mxCell id="u7DOHJphOixYkT2y7QyJ-13" value="" style="verticalLabelPosition=bottom;verticalAlign=top;html=1;shape=mxgraph.flowchart.on-page_reference;" parent="u7DOHJphOixYkT2y7QyJ-12" vertex="1">
          <mxGeometry width="60" height="60" as="geometry" />
        </mxCell>
        <mxCell id="u7DOHJphOixYkT2y7QyJ-14" value="3" style="text;html=1;align=center;verticalAlign=middle;resizable=0;points=[];autosize=1;strokeColor=none;fillColor=none;" parent="u7DOHJphOixYkT2y7QyJ-12" vertex="1">
          <mxGeometry x="15" y="15" width="30" height="30" as="geometry" />
        </mxCell>
        <mxCell id="u7DOHJphOixYkT2y7QyJ-15" value="" style="group" parent="1" vertex="1" connectable="0">
          <mxGeometry x="770" y="510" width="60" height="60" as="geometry" />
        </mxCell>
        <mxCell id="u7DOHJphOixYkT2y7QyJ-16" value="" style="verticalLabelPosition=bottom;verticalAlign=top;html=1;shape=mxgraph.flowchart.on-page_reference;" parent="u7DOHJphOixYkT2y7QyJ-15" vertex="1">
          <mxGeometry width="60" height="60" as="geometry" />
        </mxCell>
        <mxCell id="u7DOHJphOixYkT2y7QyJ-17" value="4" style="text;html=1;align=center;verticalAlign=middle;resizable=0;points=[];autosize=1;strokeColor=none;fillColor=none;" parent="u7DOHJphOixYkT2y7QyJ-15" vertex="1">
          <mxGeometry x="15" y="15" width="30" height="30" as="geometry" />
        </mxCell>
        <mxCell id="u7DOHJphOixYkT2y7QyJ-30" value="" style="edgeStyle=orthogonalEdgeStyle;rounded=0;orthogonalLoop=1;jettySize=auto;html=1;" parent="1" source="u7DOHJphOixYkT2y7QyJ-24" target="u7DOHJphOixYkT2y7QyJ-29" edge="1">
          <mxGeometry relative="1" as="geometry" />
        </mxCell>
        <mxCell id="u7DOHJphOixYkT2y7QyJ-49" value="NO" style="edgeLabel;html=1;align=center;verticalAlign=middle;resizable=0;points=[];" parent="u7DOHJphOixYkT2y7QyJ-30" vertex="1" connectable="0">
          <mxGeometry x="-0.4167" y="-1" relative="1" as="geometry">
            <mxPoint as="offset" />
          </mxGeometry>
        </mxCell>
        <mxCell id="u7DOHJphOixYkT2y7QyJ-47" value="" style="edgeStyle=orthogonalEdgeStyle;rounded=0;orthogonalLoop=1;jettySize=auto;html=1;entryX=0.5;entryY=0;entryDx=0;entryDy=0;entryPerimeter=0;exitX=0.5;exitY=1;exitDx=0;exitDy=0;exitPerimeter=0;" parent="1" source="u7DOHJphOixYkT2y7QyJ-24" edge="1">
          <mxGeometry relative="1" as="geometry">
            <mxPoint x="380" y="490" as="sourcePoint" />
            <mxPoint x="380" y="510" as="targetPoint" />
          </mxGeometry>
        </mxCell>
        <mxCell id="u7DOHJphOixYkT2y7QyJ-48" value="YES" style="edgeLabel;html=1;align=center;verticalAlign=middle;resizable=0;points=[];" parent="u7DOHJphOixYkT2y7QyJ-47" vertex="1" connectable="0">
          <mxGeometry x="-0.4524" y="-2" relative="1" as="geometry">
            <mxPoint as="offset" />
          </mxGeometry>
        </mxCell>
        <mxCell id="u7DOHJphOixYkT2y7QyJ-24" value="PILIHAN = 1?" style="strokeWidth=2;html=1;shape=mxgraph.flowchart.decision;whiteSpace=wrap;" parent="1" vertex="1">
          <mxGeometry x="330" y="340" width="100" height="100" as="geometry" />
        </mxCell>
        <mxCell id="DbqZQaNVznlcF4TdMYJp-12" value="" style="edgeStyle=orthogonalEdgeStyle;rounded=0;orthogonalLoop=1;jettySize=auto;html=1;" parent="1" source="u7DOHJphOixYkT2y7QyJ-25" target="DbqZQaNVznlcF4TdMYJp-11" edge="1">
          <mxGeometry relative="1" as="geometry" />
        </mxCell>
        <mxCell id="u7DOHJphOixYkT2y7QyJ-25" value="PILIHAN = 6?" style="strokeWidth=2;html=1;shape=mxgraph.flowchart.decision;whiteSpace=wrap;" parent="1" vertex="1">
          <mxGeometry x="1030" y="340" width="100" height="100" as="geometry" />
        </mxCell>
        <mxCell id="u7DOHJphOixYkT2y7QyJ-34" value="" style="edgeStyle=orthogonalEdgeStyle;rounded=0;orthogonalLoop=1;jettySize=auto;html=1;" parent="1" source="u7DOHJphOixYkT2y7QyJ-26" target="u7DOHJphOixYkT2y7QyJ-25" edge="1">
          <mxGeometry relative="1" as="geometry" />
        </mxCell>
        <mxCell id="u7DOHJphOixYkT2y7QyJ-56" value="NO" style="edgeLabel;html=1;align=center;verticalAlign=middle;resizable=0;points=[];" parent="u7DOHJphOixYkT2y7QyJ-34" vertex="1" connectable="0">
          <mxGeometry x="-0.25" y="-4" relative="1" as="geometry">
            <mxPoint as="offset" />
          </mxGeometry>
        </mxCell>
        <mxCell id="u7DOHJphOixYkT2y7QyJ-39" value="" style="edgeStyle=orthogonalEdgeStyle;rounded=0;orthogonalLoop=1;jettySize=auto;html=1;entryX=0.5;entryY=0;entryDx=0;entryDy=0;entryPerimeter=0;exitX=0.5;exitY=1;exitDx=0;exitDy=0;exitPerimeter=0;" parent="1" source="u7DOHJphOixYkT2y7QyJ-26" edge="1">
          <mxGeometry relative="1" as="geometry">
            <mxPoint x="940" y="490" as="sourcePoint" />
            <mxPoint x="940" y="510" as="targetPoint" />
          </mxGeometry>
        </mxCell>
        <mxCell id="u7DOHJphOixYkT2y7QyJ-57" value="YES" style="edgeLabel;html=1;align=center;verticalAlign=middle;resizable=0;points=[];" parent="u7DOHJphOixYkT2y7QyJ-39" vertex="1" connectable="0">
          <mxGeometry x="-0.0238" relative="1" as="geometry">
            <mxPoint as="offset" />
          </mxGeometry>
        </mxCell>
        <mxCell id="u7DOHJphOixYkT2y7QyJ-26" value="PILIHAN = 5?" style="strokeWidth=2;html=1;shape=mxgraph.flowchart.decision;whiteSpace=wrap;" parent="1" vertex="1">
          <mxGeometry x="890" y="340" width="100" height="100" as="geometry" />
        </mxCell>
        <mxCell id="u7DOHJphOixYkT2y7QyJ-33" value="" style="edgeStyle=orthogonalEdgeStyle;rounded=0;orthogonalLoop=1;jettySize=auto;html=1;" parent="1" source="u7DOHJphOixYkT2y7QyJ-27" target="u7DOHJphOixYkT2y7QyJ-26" edge="1">
          <mxGeometry relative="1" as="geometry" />
        </mxCell>
        <mxCell id="u7DOHJphOixYkT2y7QyJ-55" value="NO" style="edgeLabel;html=1;align=center;verticalAlign=middle;resizable=0;points=[];" parent="u7DOHJphOixYkT2y7QyJ-33" vertex="1" connectable="0">
          <mxGeometry x="-0.125" relative="1" as="geometry">
            <mxPoint as="offset" />
          </mxGeometry>
        </mxCell>
        <mxCell id="u7DOHJphOixYkT2y7QyJ-42" value="" style="edgeStyle=orthogonalEdgeStyle;rounded=0;orthogonalLoop=1;jettySize=auto;html=1;exitX=0.5;exitY=1;exitDx=0;exitDy=0;exitPerimeter=0;" parent="1" source="u7DOHJphOixYkT2y7QyJ-27" edge="1">
          <mxGeometry relative="1" as="geometry">
            <mxPoint x="800" y="490" as="sourcePoint" />
            <mxPoint x="800" y="510" as="targetPoint" />
          </mxGeometry>
        </mxCell>
        <mxCell id="u7DOHJphOixYkT2y7QyJ-54" value="YES" style="edgeLabel;html=1;align=center;verticalAlign=middle;resizable=0;points=[];" parent="u7DOHJphOixYkT2y7QyJ-42" vertex="1" connectable="0">
          <mxGeometry x="-0.2672" y="-2" relative="1" as="geometry">
            <mxPoint as="offset" />
          </mxGeometry>
        </mxCell>
        <mxCell id="u7DOHJphOixYkT2y7QyJ-27" value="PILIHAN = 4?" style="strokeWidth=2;html=1;shape=mxgraph.flowchart.decision;whiteSpace=wrap;" parent="1" vertex="1">
          <mxGeometry x="750" y="340" width="100" height="100" as="geometry" />
        </mxCell>
        <mxCell id="u7DOHJphOixYkT2y7QyJ-32" value="" style="edgeStyle=orthogonalEdgeStyle;rounded=0;orthogonalLoop=1;jettySize=auto;html=1;" parent="1" source="u7DOHJphOixYkT2y7QyJ-28" target="u7DOHJphOixYkT2y7QyJ-27" edge="1">
          <mxGeometry relative="1" as="geometry" />
        </mxCell>
        <mxCell id="u7DOHJphOixYkT2y7QyJ-53" value="NO" style="edgeLabel;html=1;align=center;verticalAlign=middle;resizable=0;points=[];" parent="u7DOHJphOixYkT2y7QyJ-32" vertex="1" connectable="0">
          <mxGeometry x="-0.4167" y="3" relative="1" as="geometry">
            <mxPoint as="offset" />
          </mxGeometry>
        </mxCell>
        <mxCell id="u7DOHJphOixYkT2y7QyJ-41" value="" style="edgeStyle=orthogonalEdgeStyle;rounded=0;orthogonalLoop=1;jettySize=auto;html=1;exitX=0.5;exitY=1;exitDx=0;exitDy=0;exitPerimeter=0;" parent="1" source="u7DOHJphOixYkT2y7QyJ-28" edge="1">
          <mxGeometry relative="1" as="geometry">
            <mxPoint x="660" y="490" as="sourcePoint" />
            <mxPoint x="660" y="510" as="targetPoint" />
          </mxGeometry>
        </mxCell>
        <mxCell id="u7DOHJphOixYkT2y7QyJ-52" value="YES" style="edgeLabel;html=1;align=center;verticalAlign=middle;resizable=0;points=[];" parent="u7DOHJphOixYkT2y7QyJ-41" vertex="1" connectable="0">
          <mxGeometry x="-0.3381" y="3" relative="1" as="geometry">
            <mxPoint as="offset" />
          </mxGeometry>
        </mxCell>
        <mxCell id="u7DOHJphOixYkT2y7QyJ-28" value="PILIHAN = 3?" style="strokeWidth=2;html=1;shape=mxgraph.flowchart.decision;whiteSpace=wrap;" parent="1" vertex="1">
          <mxGeometry x="610" y="340" width="100" height="100" as="geometry" />
        </mxCell>
        <mxCell id="u7DOHJphOixYkT2y7QyJ-31" value="" style="edgeStyle=orthogonalEdgeStyle;rounded=0;orthogonalLoop=1;jettySize=auto;html=1;" parent="1" source="u7DOHJphOixYkT2y7QyJ-29" target="u7DOHJphOixYkT2y7QyJ-28" edge="1">
          <mxGeometry relative="1" as="geometry" />
        </mxCell>
        <mxCell id="u7DOHJphOixYkT2y7QyJ-51" value="NO" style="edgeLabel;html=1;align=center;verticalAlign=middle;resizable=0;points=[];" parent="u7DOHJphOixYkT2y7QyJ-31" vertex="1" connectable="0">
          <mxGeometry x="-0.25" y="-1" relative="1" as="geometry">
            <mxPoint as="offset" />
          </mxGeometry>
        </mxCell>
        <mxCell id="u7DOHJphOixYkT2y7QyJ-40" value="" style="edgeStyle=orthogonalEdgeStyle;rounded=0;orthogonalLoop=1;jettySize=auto;html=1;exitX=0.5;exitY=1;exitDx=0;exitDy=0;exitPerimeter=0;" parent="1" source="u7DOHJphOixYkT2y7QyJ-29" edge="1">
          <mxGeometry relative="1" as="geometry">
            <mxPoint x="520" y="490" as="sourcePoint" />
            <mxPoint x="520" y="510" as="targetPoint" />
          </mxGeometry>
        </mxCell>
        <mxCell id="u7DOHJphOixYkT2y7QyJ-50" value="YES" style="edgeLabel;html=1;align=center;verticalAlign=middle;resizable=0;points=[];" parent="u7DOHJphOixYkT2y7QyJ-40" vertex="1" connectable="0">
          <mxGeometry x="-0.1253" y="-2" relative="1" as="geometry">
            <mxPoint as="offset" />
          </mxGeometry>
        </mxCell>
        <mxCell id="u7DOHJphOixYkT2y7QyJ-29" value="PILIHAN = 2?" style="strokeWidth=2;html=1;shape=mxgraph.flowchart.decision;whiteSpace=wrap;" parent="1" vertex="1">
          <mxGeometry x="470" y="340" width="100" height="100" as="geometry" />
        </mxCell>
        <mxCell id="u7DOHJphOixYkT2y7QyJ-58" value="" style="endArrow=classic;html=1;rounded=0;exitX=0.5;exitY=1;exitDx=0;exitDy=0;exitPerimeter=0;entryX=0;entryY=0.5;entryDx=0;entryDy=0;" parent="1" target="u7DOHJphOixYkT2y7QyJ-3" edge="1">
          <mxGeometry width="50" height="50" relative="1" as="geometry">
            <mxPoint x="940" y="570" as="sourcePoint" />
            <mxPoint x="280" y="670" as="targetPoint" />
            <Array as="points">
              <mxPoint x="940" y="680" />
              <mxPoint x="80" y="680" />
              <mxPoint x="90" y="210" />
              <mxPoint x="200" y="210" />
            </Array>
          </mxGeometry>
        </mxCell>
        <mxCell id="u7DOHJphOixYkT2y7QyJ-61" value="" style="endArrow=none;html=1;rounded=0;exitX=0.5;exitY=1;exitDx=0;exitDy=0;exitPerimeter=0;" parent="1" source="u7DOHJphOixYkT2y7QyJ-13" edge="1">
          <mxGeometry width="50" height="50" relative="1" as="geometry">
            <mxPoint x="530" y="630" as="sourcePoint" />
            <mxPoint x="660" y="680" as="targetPoint" />
          </mxGeometry>
        </mxCell>
        <mxCell id="u7DOHJphOixYkT2y7QyJ-62" value="" style="endArrow=none;html=1;rounded=0;entryX=0.5;entryY=1;entryDx=0;entryDy=0;entryPerimeter=0;" parent="1" target="u7DOHJphOixYkT2y7QyJ-16" edge="1">
          <mxGeometry width="50" height="50" relative="1" as="geometry">
            <mxPoint x="800" y="680" as="sourcePoint" />
            <mxPoint x="580" y="580" as="targetPoint" />
          </mxGeometry>
        </mxCell>
        <mxCell id="u7DOHJphOixYkT2y7QyJ-64" value="" style="endArrow=classic;html=1;rounded=0;exitX=0.5;exitY=1;exitDx=0;exitDy=0;exitPerimeter=0;" parent="1" edge="1">
          <mxGeometry width="50" height="50" relative="1" as="geometry">
            <mxPoint x="380" y="570" as="sourcePoint" />
            <mxPoint x="280" y="680" as="targetPoint" />
            <Array as="points">
              <mxPoint x="380" y="680" />
            </Array>
          </mxGeometry>
        </mxCell>
        <mxCell id="u7DOHJphOixYkT2y7QyJ-65" value="" style="endArrow=classic;html=1;rounded=0;" parent="1" edge="1">
          <mxGeometry width="50" height="50" relative="1" as="geometry">
            <mxPoint x="520" y="560" as="sourcePoint" />
            <mxPoint x="430" y="680" as="targetPoint" />
            <Array as="points">
              <mxPoint x="520" y="680" />
            </Array>
          </mxGeometry>
        </mxCell>
        <mxCell id="u7DOHJphOixYkT2y7QyJ-66" value="" style="endArrow=classic;html=1;rounded=0;exitX=0.5;exitY=1;exitDx=0;exitDy=0;exitPerimeter=0;" parent="1" edge="1">
          <mxGeometry width="50" height="50" relative="1" as="geometry">
            <mxPoint x="940" y="570" as="sourcePoint" />
            <mxPoint x="850" y="680" as="targetPoint" />
            <Array as="points">
              <mxPoint x="940" y="680" />
            </Array>
          </mxGeometry>
        </mxCell>
        <mxCell id="u7DOHJphOixYkT2y7QyJ-67" value="" style="endArrow=classic;html=1;rounded=0;exitX=0.5;exitY=1;exitDx=0;exitDy=0;exitPerimeter=0;" parent="1" source="u7DOHJphOixYkT2y7QyJ-16" edge="1">
          <mxGeometry width="50" height="50" relative="1" as="geometry">
            <mxPoint x="540" y="590" as="sourcePoint" />
            <mxPoint x="700" y="680" as="targetPoint" />
            <Array as="points">
              <mxPoint x="800" y="680" />
            </Array>
          </mxGeometry>
        </mxCell>
        <mxCell id="u7DOHJphOixYkT2y7QyJ-68" value="" style="endArrow=classic;html=1;rounded=0;exitX=0.5;exitY=1;exitDx=0;exitDy=0;exitPerimeter=0;" parent="1" source="u7DOHJphOixYkT2y7QyJ-13" edge="1">
          <mxGeometry width="50" height="50" relative="1" as="geometry">
            <mxPoint x="550" y="600" as="sourcePoint" />
            <mxPoint x="570" y="680" as="targetPoint" />
            <Array as="points">
              <mxPoint x="660" y="680" />
            </Array>
          </mxGeometry>
        </mxCell>
        <mxCell id="-e6u4AbI2TLuOFVbv9kL-26" value="" style="group" parent="1" vertex="1" connectable="0">
          <mxGeometry x="1670" y="940" width="60" height="60" as="geometry" />
        </mxCell>
        <mxCell id="-e6u4AbI2TLuOFVbv9kL-27" value="" style="verticalLabelPosition=bottom;verticalAlign=top;html=1;shape=mxgraph.flowchart.on-page_reference;" parent="-e6u4AbI2TLuOFVbv9kL-26" vertex="1">
          <mxGeometry width="60" height="60" as="geometry" />
        </mxCell>
        <mxCell id="-e6u4AbI2TLuOFVbv9kL-28" value="7" style="text;html=1;align=center;verticalAlign=middle;resizable=0;points=[];autosize=1;strokeColor=none;fillColor=none;" parent="-e6u4AbI2TLuOFVbv9kL-26" vertex="1">
          <mxGeometry x="15" y="15" width="30" height="30" as="geometry" />
        </mxCell>
        <mxCell id="-e6u4AbI2TLuOFVbv9kL-29" value="" style="endArrow=classic;html=1;rounded=0;exitX=0.5;exitY=1;exitDx=0;exitDy=0;exitPerimeter=0;" parent="1" source="-e6u4AbI2TLuOFVbv9kL-27" target="-e6u4AbI2TLuOFVbv9kL-30" edge="1">
          <mxGeometry width="50" height="50" relative="1" as="geometry">
            <mxPoint x="1343.75" y="1040" as="sourcePoint" />
            <mxPoint x="1683.75" y="1050" as="targetPoint" />
          </mxGeometry>
        </mxCell>
        <mxCell id="-e6u4AbI2TLuOFVbv9kL-32" value="" style="edgeStyle=orthogonalEdgeStyle;rounded=0;orthogonalLoop=1;jettySize=auto;html=1;entryX=0.5;entryY=0;entryDx=0;entryDy=0;entryPerimeter=0;" parent="1" source="-e6u4AbI2TLuOFVbv9kL-30" target="-FAHl2pJLtwKHHKzeQm9-13" edge="1">
          <mxGeometry relative="1" as="geometry">
            <mxPoint x="1708.75" y="1160" as="targetPoint" />
          </mxGeometry>
        </mxCell>
        <mxCell id="-e6u4AbI2TLuOFVbv9kL-30" value="&lt;blockquote style=&quot;margin: 0px 20px; border: none; padding: 0px;&quot;&gt;MASUKAN NO BARANG YANG INGIN DIBELI&lt;/blockquote&gt;" style="shape=parallelogram;html=1;strokeWidth=2;perimeter=parallelogramPerimeter;whiteSpace=wrap;rounded=1;arcSize=12;size=0.23;align=center;" parent="1" vertex="1">
          <mxGeometry x="1610" y="1040" width="180" height="80" as="geometry" />
        </mxCell>
        <mxCell id="-e6u4AbI2TLuOFVbv9kL-36" value="" style="edgeStyle=orthogonalEdgeStyle;rounded=0;orthogonalLoop=1;jettySize=auto;html=1;" parent="1" source="-e6u4AbI2TLuOFVbv9kL-31" target="-e6u4AbI2TLuOFVbv9kL-35" edge="1">
          <mxGeometry relative="1" as="geometry" />
        </mxCell>
        <mxCell id="-e6u4AbI2TLuOFVbv9kL-31" value="PEMBELIAN" style="rounded=1;whiteSpace=wrap;html=1;absoluteArcSize=1;arcSize=14;strokeWidth=2;" parent="1" vertex="1">
          <mxGeometry x="1650.01" y="1320" width="100" height="30" as="geometry" />
        </mxCell>
        <mxCell id="-e6u4AbI2TLuOFVbv9kL-33" value="" style="endArrow=classic;html=1;rounded=0;entryX=0.25;entryY=0;entryDx=0;entryDy=0;" parent="1" edge="1">
          <mxGeometry width="50" height="50" relative="1" as="geometry">
            <mxPoint x="1618.75" y="1040" as="sourcePoint" />
            <mxPoint x="1663.75" y="1040" as="targetPoint" />
          </mxGeometry>
        </mxCell>
        <mxCell id="-FAHl2pJLtwKHHKzeQm9-17" value="" style="edgeStyle=orthogonalEdgeStyle;rounded=0;orthogonalLoop=1;jettySize=auto;html=1;" parent="1" source="-e6u4AbI2TLuOFVbv9kL-35" target="-FAHl2pJLtwKHHKzeQm9-16" edge="1">
          <mxGeometry relative="1" as="geometry" />
        </mxCell>
        <mxCell id="-e6u4AbI2TLuOFVbv9kL-35" value="BARANG BERHASIL DIBELI" style="shape=parallelogram;html=1;strokeWidth=2;perimeter=parallelogramPerimeter;whiteSpace=wrap;rounded=1;arcSize=12;size=0.23;" parent="1" vertex="1">
          <mxGeometry x="1635.01" y="1400" width="130" height="80" as="geometry" />
        </mxCell>
        <mxCell id="-e6u4AbI2TLuOFVbv9kL-37" value="" style="endArrow=classic;html=1;rounded=0;exitX=0.75;exitY=1;exitDx=0;exitDy=0;" parent="1" source="-e6u4AbI2TLuOFVbv9kL-35" edge="1">
          <mxGeometry width="50" height="50" relative="1" as="geometry">
            <mxPoint x="1735.01" y="1490" as="sourcePoint" />
            <mxPoint x="1755.01" y="1480" as="targetPoint" />
          </mxGeometry>
        </mxCell>
        <mxCell id="-e6u4AbI2TLuOFVbv9kL-41" value="" style="group" parent="1" vertex="1" connectable="0">
          <mxGeometry x="1823.75" y="1040" width="120" height="60" as="geometry" />
        </mxCell>
        <mxCell id="-e6u4AbI2TLuOFVbv9kL-42" value="&lt;span style=&quot;font-size: 10px;&quot;&gt;MASUKAN JUMLAH TOPUP&lt;/span&gt;" style="shape=parallelogram;html=1;strokeWidth=2;perimeter=parallelogramPerimeter;whiteSpace=wrap;rounded=1;arcSize=12;size=0.23;" parent="-e6u4AbI2TLuOFVbv9kL-41" vertex="1">
          <mxGeometry x="20" width="100" height="60" as="geometry" />
        </mxCell>
        <mxCell id="-e6u4AbI2TLuOFVbv9kL-43" value="" style="endArrow=classic;html=1;rounded=0;entryX=0.25;entryY=0;entryDx=0;entryDy=0;" parent="-e6u4AbI2TLuOFVbv9kL-41" target="-e6u4AbI2TLuOFVbv9kL-42" edge="1">
          <mxGeometry width="50" height="50" relative="1" as="geometry">
            <mxPoint y="0.44000000000005457" as="sourcePoint" />
            <mxPoint x="-60" y="-52.559999999999945" as="targetPoint" />
          </mxGeometry>
        </mxCell>
        <mxCell id="-e6u4AbI2TLuOFVbv9kL-44" value="" style="edgeStyle=orthogonalEdgeStyle;rounded=0;orthogonalLoop=1;jettySize=auto;html=1;" parent="1" source="-e6u4AbI2TLuOFVbv9kL-45" target="-e6u4AbI2TLuOFVbv9kL-52" edge="1">
          <mxGeometry relative="1" as="geometry" />
        </mxCell>
        <mxCell id="-e6u4AbI2TLuOFVbv9kL-45" value="&lt;font size=&quot;1&quot;&gt;UPDATE&amp;nbsp;&lt;/font&gt;" style="rounded=1;whiteSpace=wrap;html=1;absoluteArcSize=1;arcSize=14;strokeWidth=2;" parent="1" vertex="1">
          <mxGeometry x="1848.75" y="1130" width="90" height="30" as="geometry" />
        </mxCell>
        <mxCell id="-e6u4AbI2TLuOFVbv9kL-49" value="" style="edgeStyle=orthogonalEdgeStyle;rounded=0;orthogonalLoop=1;jettySize=auto;html=1;entryX=0.5;entryY=0;entryDx=0;entryDy=0;" parent="1" source="-e6u4AbI2TLuOFVbv9kL-42" target="-e6u4AbI2TLuOFVbv9kL-45" edge="1">
          <mxGeometry relative="1" as="geometry">
            <mxPoint x="1893.75" y="1125" as="targetPoint" />
            <Array as="points">
              <mxPoint x="1893.75" y="1113" />
              <mxPoint x="1894.75" y="1225" />
            </Array>
          </mxGeometry>
        </mxCell>
        <mxCell id="-e6u4AbI2TLuOFVbv9kL-51" value="" style="group" parent="1" vertex="1" connectable="0">
          <mxGeometry x="1835" y="1198" width="117.5" height="80" as="geometry" />
        </mxCell>
        <mxCell id="-e6u4AbI2TLuOFVbv9kL-52" value="&lt;blockquote style=&quot;margin: 0px 20px; border: none; padding: 0px;&quot;&gt;&lt;font size=&quot;1&quot;&gt;SALDO BERHASIL DITAMBAH&lt;/font&gt;&lt;/blockquote&gt;" style="shape=parallelogram;html=1;strokeWidth=2;perimeter=parallelogramPerimeter;whiteSpace=wrap;rounded=1;arcSize=12;size=0.23;" parent="-e6u4AbI2TLuOFVbv9kL-51" vertex="1">
          <mxGeometry x="1.25" width="115" height="70" as="geometry" />
        </mxCell>
        <mxCell id="-e6u4AbI2TLuOFVbv9kL-53" value="" style="endArrow=classic;html=1;rounded=0;exitX=0.75;exitY=1;exitDx=0;exitDy=0;" parent="-e6u4AbI2TLuOFVbv9kL-51" source="-e6u4AbI2TLuOFVbv9kL-52" edge="1">
          <mxGeometry width="50" height="50" relative="1" as="geometry">
            <mxPoint x="-12.5" y="-28" as="sourcePoint" />
            <mxPoint x="118.75" y="70" as="targetPoint" />
          </mxGeometry>
        </mxCell>
        <mxCell id="-e6u4AbI2TLuOFVbv9kL-54" value="" style="edgeStyle=orthogonalEdgeStyle;rounded=0;orthogonalLoop=1;jettySize=auto;html=1;" parent="1" target="-e6u4AbI2TLuOFVbv9kL-42" edge="1">
          <mxGeometry relative="1" as="geometry">
            <mxPoint x="1893.75" y="995" as="sourcePoint" />
          </mxGeometry>
        </mxCell>
        <mxCell id="-e6u4AbI2TLuOFVbv9kL-56" value="" style="verticalLabelPosition=bottom;verticalAlign=top;html=1;shape=mxgraph.flowchart.on-page_reference;" parent="1" vertex="1">
          <mxGeometry x="2045" y="950" width="60" height="60" as="geometry" />
        </mxCell>
        <mxCell id="-e6u4AbI2TLuOFVbv9kL-60" value="" style="edgeStyle=orthogonalEdgeStyle;rounded=0;orthogonalLoop=1;jettySize=auto;html=1;entryX=0.566;entryY=0.03;entryDx=0;entryDy=0;entryPerimeter=0;" parent="1" target="-e6u4AbI2TLuOFVbv9kL-66" edge="1">
          <mxGeometry relative="1" as="geometry">
            <mxPoint x="2075" y="1010" as="sourcePoint" />
            <mxPoint x="2075" y="1060" as="targetPoint" />
          </mxGeometry>
        </mxCell>
        <mxCell id="-e6u4AbI2TLuOFVbv9kL-58" value="9" style="text;html=1;align=center;verticalAlign=middle;resizable=0;points=[];autosize=1;strokeColor=none;fillColor=none;" parent="1" vertex="1">
          <mxGeometry x="2060" y="965" width="30" height="30" as="geometry" />
        </mxCell>
        <mxCell id="-e6u4AbI2TLuOFVbv9kL-65" value="" style="group" parent="1" vertex="1" connectable="0">
          <mxGeometry x="2010" y="1050" width="117.5" height="80" as="geometry" />
        </mxCell>
        <mxCell id="-e6u4AbI2TLuOFVbv9kL-66" value="&lt;blockquote style=&quot;margin: 0px 20px; border: none; padding: 0px;&quot;&gt;&lt;font size=&quot;1&quot;&gt;TAMPILKAN SALDO USER&lt;/font&gt;&lt;/blockquote&gt;" style="shape=parallelogram;html=1;strokeWidth=2;perimeter=parallelogramPerimeter;whiteSpace=wrap;rounded=1;arcSize=12;size=0.23;" parent="-e6u4AbI2TLuOFVbv9kL-65" vertex="1">
          <mxGeometry x="1.25" width="115" height="70" as="geometry" />
        </mxCell>
        <mxCell id="-e6u4AbI2TLuOFVbv9kL-67" value="" style="endArrow=classic;html=1;rounded=0;exitX=0.75;exitY=1;exitDx=0;exitDy=0;" parent="-e6u4AbI2TLuOFVbv9kL-65" source="-e6u4AbI2TLuOFVbv9kL-66" edge="1">
          <mxGeometry width="50" height="50" relative="1" as="geometry">
            <mxPoint x="-12.5" y="-28" as="sourcePoint" />
            <mxPoint x="118.75" y="70" as="targetPoint" />
          </mxGeometry>
        </mxCell>
        <mxCell id="WpWLBhW0GtoLOZne6LZG-11" value="" style="edgeStyle=orthogonalEdgeStyle;rounded=0;orthogonalLoop=1;jettySize=auto;html=1;" parent="1" source="WpWLBhW0GtoLOZne6LZG-1" target="WpWLBhW0GtoLOZne6LZG-4" edge="1">
          <mxGeometry relative="1" as="geometry" />
        </mxCell>
        <mxCell id="WpWLBhW0GtoLOZne6LZG-1" value="" style="verticalLabelPosition=bottom;verticalAlign=top;html=1;shape=offPageConnector;rounded=0;size=0.5;" parent="1" vertex="1">
          <mxGeometry x="1740" y="390" width="60" height="60" as="geometry" />
        </mxCell>
        <mxCell id="WpWLBhW0GtoLOZne6LZG-2" value="PEMBELI" style="text;html=1;align=center;verticalAlign=middle;resizable=0;points=[];autosize=1;strokeColor=none;fillColor=none;" parent="1" vertex="1">
          <mxGeometry x="1730" y="390" width="80" height="30" as="geometry" />
        </mxCell>
        <mxCell id="WpWLBhW0GtoLOZne6LZG-3" value="" style="edgeStyle=orthogonalEdgeStyle;rounded=0;orthogonalLoop=1;jettySize=auto;html=1;" parent="1" source="WpWLBhW0GtoLOZne6LZG-4" target="WpWLBhW0GtoLOZne6LZG-9" edge="1">
          <mxGeometry relative="1" as="geometry" />
        </mxCell>
        <mxCell id="WpWLBhW0GtoLOZne6LZG-4" value="1. LIHAT PRODUK&lt;div&gt;2. BELI PRODUK&lt;/div&gt;&lt;div&gt;3. TOPUP SALDO&lt;/div&gt;&lt;div&gt;4. LIHAT SALDO&lt;/div&gt;&lt;div&gt;5. LIHAT RIWAYAT PEMBELIAN&lt;/div&gt;&lt;div&gt;6. KELUAR&lt;/div&gt;" style="shape=parallelogram;html=1;strokeWidth=2;perimeter=parallelogramPerimeter;whiteSpace=wrap;rounded=1;arcSize=12;size=0.23;" parent="1" vertex="1">
          <mxGeometry x="1615" y="480" width="310" height="95" as="geometry" />
        </mxCell>
        <mxCell id="WpWLBhW0GtoLOZne6LZG-7" value="" style="edgeStyle=orthogonalEdgeStyle;rounded=0;orthogonalLoop=1;jettySize=auto;html=1;" parent="1" source="WpWLBhW0GtoLOZne6LZG-9" edge="1">
          <mxGeometry relative="1" as="geometry">
            <mxPoint x="1770" y="770" as="targetPoint" />
          </mxGeometry>
        </mxCell>
        <mxCell id="WpWLBhW0GtoLOZne6LZG-8" value="YES" style="edgeLabel;html=1;align=center;verticalAlign=middle;resizable=0;points=[];" parent="WpWLBhW0GtoLOZne6LZG-7" vertex="1" connectable="0">
          <mxGeometry x="-0.41" y="-1" relative="1" as="geometry">
            <mxPoint as="offset" />
          </mxGeometry>
        </mxCell>
        <mxCell id="-FAHl2pJLtwKHHKzeQm9-7" value="" style="edgeStyle=orthogonalEdgeStyle;rounded=0;orthogonalLoop=1;jettySize=auto;html=1;" parent="1" source="WpWLBhW0GtoLOZne6LZG-9" target="-FAHl2pJLtwKHHKzeQm9-6" edge="1">
          <mxGeometry relative="1" as="geometry" />
        </mxCell>
        <mxCell id="-FAHl2pJLtwKHHKzeQm9-29" value="NO" style="edgeLabel;html=1;align=center;verticalAlign=middle;resizable=0;points=[];" parent="-FAHl2pJLtwKHHKzeQm9-7" vertex="1" connectable="0">
          <mxGeometry x="-0.2333" y="-2" relative="1" as="geometry">
            <mxPoint as="offset" />
          </mxGeometry>
        </mxCell>
        <mxCell id="WpWLBhW0GtoLOZne6LZG-9" value="PILHAN = 1" style="strokeWidth=2;html=1;shape=mxgraph.flowchart.decision;whiteSpace=wrap;" parent="1" vertex="1">
          <mxGeometry x="1720" y="605" width="100" height="100" as="geometry" />
        </mxCell>
        <mxCell id="WpWLBhW0GtoLOZne6LZG-12" value="PILHAN = 6" style="strokeWidth=2;html=1;shape=mxgraph.flowchart.decision;whiteSpace=wrap;" parent="1" vertex="1">
          <mxGeometry x="2590" y="605" width="100" height="100" as="geometry" />
        </mxCell>
        <mxCell id="DbqZQaNVznlcF4TdMYJp-1" value="" style="endArrow=classic;html=1;rounded=0;exitX=0.5;exitY=1;exitDx=0;exitDy=0;exitPerimeter=0;" parent="1" source="WpWLBhW0GtoLOZne6LZG-12" target="DbqZQaNVznlcF4TdMYJp-4" edge="1">
          <mxGeometry width="50" height="50" relative="1" as="geometry">
            <mxPoint x="2550" y="710" as="sourcePoint" />
            <mxPoint x="2640" y="730" as="targetPoint" />
          </mxGeometry>
        </mxCell>
        <mxCell id="DbqZQaNVznlcF4TdMYJp-2" value="YES" style="edgeLabel;html=1;align=center;verticalAlign=middle;resizable=0;points=[];" parent="DbqZQaNVznlcF4TdMYJp-1" vertex="1" connectable="0">
          <mxGeometry x="-0.2024" y="-2" relative="1" as="geometry">
            <mxPoint as="offset" />
          </mxGeometry>
        </mxCell>
        <mxCell id="DbqZQaNVznlcF4TdMYJp-3" value="" style="verticalLabelPosition=bottom;verticalAlign=top;html=1;shape=offPageConnector;rounded=0;size=0.5;" parent="1" vertex="1">
          <mxGeometry x="2610" y="785" width="60" height="60" as="geometry" />
        </mxCell>
        <mxCell id="DbqZQaNVznlcF4TdMYJp-4" value="&lt;blockquote style=&quot;margin: 0px 20px; border: none; padding: 0px;&quot;&gt;&lt;font style=&quot;font-size: 9px;&quot;&gt;MENU UTAMA&lt;/font&gt;&lt;/blockquote&gt;" style="text;html=1;align=center;verticalAlign=middle;resizable=0;points=[];autosize=1;strokeColor=none;fillColor=none;" parent="1" vertex="1">
          <mxGeometry x="2580" y="785" width="120" height="30" as="geometry" />
        </mxCell>
        <mxCell id="DbqZQaNVznlcF4TdMYJp-9" value="YES" style="edgeLabel;html=1;align=center;verticalAlign=middle;resizable=0;points=[];" parent="1" vertex="1" connectable="0">
          <mxGeometry x="1078" y="480.00047619047626" as="geometry" />
        </mxCell>
        <mxCell id="DbqZQaNVznlcF4TdMYJp-10" value="" style="verticalLabelPosition=bottom;verticalAlign=top;html=1;shape=offPageConnector;rounded=0;size=0.5;" parent="1" vertex="1">
          <mxGeometry x="1050" y="503.81" width="60" height="60" as="geometry" />
        </mxCell>
        <mxCell id="DbqZQaNVznlcF4TdMYJp-11" value="&lt;blockquote style=&quot;margin: 0px 20px; border: none; padding: 0px;&quot;&gt;&lt;font style=&quot;font-size: 9px;&quot;&gt;MENU UTAMA&lt;/font&gt;&lt;/blockquote&gt;" style="text;html=1;align=center;verticalAlign=middle;resizable=0;points=[];autosize=1;strokeColor=none;fillColor=none;" parent="1" vertex="1">
          <mxGeometry x="1020" y="503.81" width="120" height="30" as="geometry" />
        </mxCell>
        <mxCell id="snuP2eJQ9AEqwA7P_ZU4-22" value="" style="group" parent="1" vertex="1" connectable="0">
          <mxGeometry x="890" y="510" width="120" height="60" as="geometry" />
        </mxCell>
        <mxCell id="snuP2eJQ9AEqwA7P_ZU4-23" value="TAMPILKAN&amp;nbsp;&lt;div&gt;PROFIT&lt;/div&gt;" style="shape=parallelogram;html=1;strokeWidth=2;perimeter=parallelogramPerimeter;whiteSpace=wrap;rounded=1;arcSize=12;size=0.23;" parent="snuP2eJQ9AEqwA7P_ZU4-22" vertex="1">
          <mxGeometry width="100" height="60" as="geometry" />
        </mxCell>
        <mxCell id="snuP2eJQ9AEqwA7P_ZU4-24" value="" style="endArrow=classic;html=1;rounded=0;exitX=0.75;exitY=1;exitDx=0;exitDy=0;" parent="snuP2eJQ9AEqwA7P_ZU4-22" source="snuP2eJQ9AEqwA7P_ZU4-23" edge="1">
          <mxGeometry width="50" height="50" relative="1" as="geometry">
            <mxPoint x="-30" y="-60" as="sourcePoint" />
            <mxPoint x="120" y="60" as="targetPoint" />
          </mxGeometry>
        </mxCell>
        <mxCell id="snuP2eJQ9AEqwA7P_ZU4-39" value="" style="endArrow=classic;html=1;rounded=0;entryX=0.145;entryY=0.405;entryDx=0;entryDy=0;entryPerimeter=0;" parent="1" target="WpWLBhW0GtoLOZne6LZG-4" edge="1">
          <mxGeometry width="50" height="50" relative="1" as="geometry">
            <mxPoint x="1600" y="900" as="sourcePoint" />
            <mxPoint x="1600" y="515" as="targetPoint" />
            <Array as="points">
              <mxPoint x="1600" y="800" />
              <mxPoint x="1600" y="520" />
            </Array>
          </mxGeometry>
        </mxCell>
        <mxCell id="-e6u4AbI2TLuOFVbv9kL-39" value="" style="verticalLabelPosition=bottom;verticalAlign=top;html=1;shape=mxgraph.flowchart.on-page_reference;" parent="1" vertex="1">
          <mxGeometry x="1863.75" y="935" width="60" height="60" as="geometry" />
        </mxCell>
        <mxCell id="-FAHl2pJLtwKHHKzeQm9-2" value="8" style="text;html=1;align=center;verticalAlign=middle;resizable=0;points=[];autosize=1;strokeColor=none;fillColor=none;" parent="1" vertex="1">
          <mxGeometry x="1878.75" y="950" width="30" height="30" as="geometry" />
        </mxCell>
        <mxCell id="-FAHl2pJLtwKHHKzeQm9-3" value="" style="group" parent="1" vertex="1" connectable="0">
          <mxGeometry x="1710" y="770" width="130" height="60" as="geometry" />
        </mxCell>
        <mxCell id="-FAHl2pJLtwKHHKzeQm9-4" value="TAMPILKAN PRODUK" style="shape=parallelogram;html=1;strokeWidth=2;perimeter=parallelogramPerimeter;whiteSpace=wrap;rounded=1;arcSize=12;size=0.23;" parent="-FAHl2pJLtwKHHKzeQm9-3" vertex="1">
          <mxGeometry width="108.33333333333333" height="60" as="geometry" />
        </mxCell>
        <mxCell id="-FAHl2pJLtwKHHKzeQm9-5" value="" style="endArrow=classic;html=1;rounded=0;exitX=0.75;exitY=1;exitDx=0;exitDy=0;" parent="-FAHl2pJLtwKHHKzeQm9-3" source="-FAHl2pJLtwKHHKzeQm9-4" edge="1">
          <mxGeometry width="50" height="50" relative="1" as="geometry">
            <mxPoint x="-32.5" y="-60" as="sourcePoint" />
            <mxPoint x="130" y="60" as="targetPoint" />
          </mxGeometry>
        </mxCell>
        <mxCell id="-FAHl2pJLtwKHHKzeQm9-10" value="" style="edgeStyle=orthogonalEdgeStyle;rounded=0;orthogonalLoop=1;jettySize=auto;html=1;entryX=0.5;entryY=0;entryDx=0;entryDy=0;entryPerimeter=0;" parent="1" source="-FAHl2pJLtwKHHKzeQm9-6" target="-FAHl2pJLtwKHHKzeQm9-27" edge="1">
          <mxGeometry relative="1" as="geometry">
            <mxPoint x="1950" y="785" as="targetPoint" />
          </mxGeometry>
        </mxCell>
        <mxCell id="-FAHl2pJLtwKHHKzeQm9-51" value="" style="edgeStyle=orthogonalEdgeStyle;rounded=0;orthogonalLoop=1;jettySize=auto;html=1;" parent="1" source="-FAHl2pJLtwKHHKzeQm9-6" target="-FAHl2pJLtwKHHKzeQm9-37" edge="1">
          <mxGeometry relative="1" as="geometry" />
        </mxCell>
        <mxCell id="-FAHl2pJLtwKHHKzeQm9-6" value="PILHAN = 2" style="strokeWidth=2;html=1;shape=mxgraph.flowchart.decision;whiteSpace=wrap;" parent="1" vertex="1">
          <mxGeometry x="1900" y="605" width="100" height="100" as="geometry" />
        </mxCell>
        <mxCell id="-FAHl2pJLtwKHHKzeQm9-8" value="" style="endArrow=classic;html=1;rounded=0;entryX=0.239;entryY=0.017;entryDx=0;entryDy=0;entryPerimeter=0;" parent="1" target="WpWLBhW0GtoLOZne6LZG-4" edge="1">
          <mxGeometry width="50" height="50" relative="1" as="geometry">
            <mxPoint x="1600" y="480" as="sourcePoint" />
            <mxPoint x="1650" y="460" as="targetPoint" />
          </mxGeometry>
        </mxCell>
        <mxCell id="-FAHl2pJLtwKHHKzeQm9-18" value="" style="edgeStyle=orthogonalEdgeStyle;rounded=0;orthogonalLoop=1;jettySize=auto;html=1;" parent="1" source="-FAHl2pJLtwKHHKzeQm9-13" target="-e6u4AbI2TLuOFVbv9kL-31" edge="1">
          <mxGeometry relative="1" as="geometry" />
        </mxCell>
        <mxCell id="-FAHl2pJLtwKHHKzeQm9-19" value="YES" style="edgeLabel;html=1;align=center;verticalAlign=middle;resizable=0;points=[];" parent="-FAHl2pJLtwKHHKzeQm9-18" vertex="1" connectable="0">
          <mxGeometry x="-0.2156" y="2" relative="1" as="geometry">
            <mxPoint as="offset" />
          </mxGeometry>
        </mxCell>
        <mxCell id="-FAHl2pJLtwKHHKzeQm9-13" value="APAKAH SALDO CUKUP?" style="strokeWidth=2;html=1;shape=mxgraph.flowchart.decision;whiteSpace=wrap;" parent="1" vertex="1">
          <mxGeometry x="1645.63" y="1165" width="108.75" height="115" as="geometry" />
        </mxCell>
        <mxCell id="-FAHl2pJLtwKHHKzeQm9-14" value="" style="endArrow=classic;html=1;rounded=0;exitX=1;exitY=0.5;exitDx=0;exitDy=0;exitPerimeter=0;entryX=1;entryY=0.5;entryDx=0;entryDy=0;entryPerimeter=0;" parent="1" source="-FAHl2pJLtwKHHKzeQm9-13" target="-FAHl2pJLtwKHHKzeQm9-16" edge="1">
          <mxGeometry width="50" height="50" relative="1" as="geometry">
            <mxPoint x="1978.75" y="1220" as="sourcePoint" />
            <mxPoint x="2028.75" y="1170" as="targetPoint" />
            <Array as="points">
              <mxPoint x="1818.75" y="1220" />
              <mxPoint x="1818.75" y="1580" />
            </Array>
          </mxGeometry>
        </mxCell>
        <mxCell id="-FAHl2pJLtwKHHKzeQm9-15" value="NO" style="text;html=1;align=center;verticalAlign=middle;resizable=0;points=[];autosize=1;strokeColor=none;fillColor=none;" parent="1" vertex="1">
          <mxGeometry x="1758.75" y="1198" width="40" height="30" as="geometry" />
        </mxCell>
        <mxCell id="-FAHl2pJLtwKHHKzeQm9-16" value="END" style="strokeWidth=2;html=1;shape=mxgraph.flowchart.terminator;whiteSpace=wrap;" parent="1" vertex="1">
          <mxGeometry x="1650.02" y="1550" width="100" height="60" as="geometry" />
        </mxCell>
        <mxCell id="-FAHl2pJLtwKHHKzeQm9-21" value="END" style="strokeWidth=2;html=1;shape=mxgraph.flowchart.terminator;whiteSpace=wrap;" parent="1" vertex="1">
          <mxGeometry x="2018.75" y="1180" width="100" height="60" as="geometry" />
        </mxCell>
        <mxCell id="-FAHl2pJLtwKHHKzeQm9-22" value="END" style="strokeWidth=2;html=1;shape=mxgraph.flowchart.terminator;whiteSpace=wrap;" parent="1" vertex="1">
          <mxGeometry x="1843.75" y="1320" width="100" height="60" as="geometry" />
        </mxCell>
        <mxCell id="-FAHl2pJLtwKHHKzeQm9-23" value="" style="edgeStyle=orthogonalEdgeStyle;rounded=0;orthogonalLoop=1;jettySize=auto;html=1;" parent="1" source="-e6u4AbI2TLuOFVbv9kL-52" target="-FAHl2pJLtwKHHKzeQm9-22" edge="1">
          <mxGeometry relative="1" as="geometry" />
        </mxCell>
        <mxCell id="-FAHl2pJLtwKHHKzeQm9-24" value="" style="edgeStyle=orthogonalEdgeStyle;rounded=0;orthogonalLoop=1;jettySize=auto;html=1;" parent="1" source="-e6u4AbI2TLuOFVbv9kL-66" target="-FAHl2pJLtwKHHKzeQm9-21" edge="1">
          <mxGeometry relative="1" as="geometry" />
        </mxCell>
        <mxCell id="-FAHl2pJLtwKHHKzeQm9-26" value="" style="group" parent="1" vertex="1" connectable="0">
          <mxGeometry x="1920" y="790" width="60" height="60" as="geometry" />
        </mxCell>
        <mxCell id="-FAHl2pJLtwKHHKzeQm9-27" value="" style="verticalLabelPosition=bottom;verticalAlign=top;html=1;shape=mxgraph.flowchart.on-page_reference;" parent="-FAHl2pJLtwKHHKzeQm9-26" vertex="1">
          <mxGeometry width="60" height="60" as="geometry" />
        </mxCell>
        <mxCell id="-FAHl2pJLtwKHHKzeQm9-28" value="7" style="text;html=1;align=center;verticalAlign=middle;resizable=0;points=[];autosize=1;strokeColor=none;fillColor=none;" parent="-FAHl2pJLtwKHHKzeQm9-26" vertex="1">
          <mxGeometry x="15" y="15" width="30" height="30" as="geometry" />
        </mxCell>
        <mxCell id="-FAHl2pJLtwKHHKzeQm9-36" value="" style="edgeStyle=orthogonalEdgeStyle;rounded=0;orthogonalLoop=1;jettySize=auto;html=1;entryX=0.5;entryY=0;entryDx=0;entryDy=0;entryPerimeter=0;" parent="1" source="-FAHl2pJLtwKHHKzeQm9-37" target="-FAHl2pJLtwKHHKzeQm9-39" edge="1">
          <mxGeometry relative="1" as="geometry">
            <mxPoint x="2108.75" y="785" as="targetPoint" />
          </mxGeometry>
        </mxCell>
        <mxCell id="-FAHl2pJLtwKHHKzeQm9-52" value="" style="edgeStyle=orthogonalEdgeStyle;rounded=0;orthogonalLoop=1;jettySize=auto;html=1;" parent="1" source="-FAHl2pJLtwKHHKzeQm9-37" target="-FAHl2pJLtwKHHKzeQm9-42" edge="1">
          <mxGeometry relative="1" as="geometry" />
        </mxCell>
        <mxCell id="-FAHl2pJLtwKHHKzeQm9-37" value="PILHAN = 3" style="strokeWidth=2;html=1;shape=mxgraph.flowchart.decision;whiteSpace=wrap;" parent="1" vertex="1">
          <mxGeometry x="2058.75" y="605" width="100" height="100" as="geometry" />
        </mxCell>
        <mxCell id="-FAHl2pJLtwKHHKzeQm9-38" value="" style="group" parent="1" vertex="1" connectable="0">
          <mxGeometry x="2078.75" y="790" width="60" height="60" as="geometry" />
        </mxCell>
        <mxCell id="-FAHl2pJLtwKHHKzeQm9-39" value="" style="verticalLabelPosition=bottom;verticalAlign=top;html=1;shape=mxgraph.flowchart.on-page_reference;" parent="-FAHl2pJLtwKHHKzeQm9-38" vertex="1">
          <mxGeometry width="60" height="60" as="geometry" />
        </mxCell>
        <mxCell id="-FAHl2pJLtwKHHKzeQm9-40" value="8" style="text;html=1;align=center;verticalAlign=middle;resizable=0;points=[];autosize=1;strokeColor=none;fillColor=none;" parent="-FAHl2pJLtwKHHKzeQm9-38" vertex="1">
          <mxGeometry x="15" y="15" width="30" height="30" as="geometry" />
        </mxCell>
        <mxCell id="-FAHl2pJLtwKHHKzeQm9-41" value="" style="edgeStyle=orthogonalEdgeStyle;rounded=0;orthogonalLoop=1;jettySize=auto;html=1;entryX=0.5;entryY=0;entryDx=0;entryDy=0;entryPerimeter=0;" parent="1" source="-FAHl2pJLtwKHHKzeQm9-42" target="-FAHl2pJLtwKHHKzeQm9-44" edge="1">
          <mxGeometry relative="1" as="geometry">
            <mxPoint x="2280" y="785" as="targetPoint" />
          </mxGeometry>
        </mxCell>
        <mxCell id="-FAHl2pJLtwKHHKzeQm9-53" value="" style="edgeStyle=orthogonalEdgeStyle;rounded=0;orthogonalLoop=1;jettySize=auto;html=1;" parent="1" source="-FAHl2pJLtwKHHKzeQm9-42" target="-FAHl2pJLtwKHHKzeQm9-47" edge="1">
          <mxGeometry relative="1" as="geometry" />
        </mxCell>
        <mxCell id="-FAHl2pJLtwKHHKzeQm9-42" value="PILHAN = 4" style="strokeWidth=2;html=1;shape=mxgraph.flowchart.decision;whiteSpace=wrap;" parent="1" vertex="1">
          <mxGeometry x="2230" y="605" width="100" height="100" as="geometry" />
        </mxCell>
        <mxCell id="-FAHl2pJLtwKHHKzeQm9-43" value="" style="group" parent="1" vertex="1" connectable="0">
          <mxGeometry x="2250" y="790" width="60" height="60" as="geometry" />
        </mxCell>
        <mxCell id="-FAHl2pJLtwKHHKzeQm9-44" value="" style="verticalLabelPosition=bottom;verticalAlign=top;html=1;shape=mxgraph.flowchart.on-page_reference;" parent="-FAHl2pJLtwKHHKzeQm9-43" vertex="1">
          <mxGeometry width="60" height="60" as="geometry" />
        </mxCell>
        <mxCell id="-FAHl2pJLtwKHHKzeQm9-45" value="9" style="text;html=1;align=center;verticalAlign=middle;resizable=0;points=[];autosize=1;strokeColor=none;fillColor=none;" parent="-FAHl2pJLtwKHHKzeQm9-43" vertex="1">
          <mxGeometry x="15" y="15" width="30" height="30" as="geometry" />
        </mxCell>
        <mxCell id="-FAHl2pJLtwKHHKzeQm9-46" value="" style="edgeStyle=orthogonalEdgeStyle;rounded=0;orthogonalLoop=1;jettySize=auto;html=1;entryX=0.5;entryY=0;entryDx=0;entryDy=0;entryPerimeter=0;" parent="1" source="-FAHl2pJLtwKHHKzeQm9-47" target="-FAHl2pJLtwKHHKzeQm9-49" edge="1">
          <mxGeometry relative="1" as="geometry">
            <mxPoint x="2460" y="785" as="targetPoint" />
          </mxGeometry>
        </mxCell>
        <mxCell id="-FAHl2pJLtwKHHKzeQm9-54" value="" style="edgeStyle=orthogonalEdgeStyle;rounded=0;orthogonalLoop=1;jettySize=auto;html=1;" parent="1" source="-FAHl2pJLtwKHHKzeQm9-47" target="WpWLBhW0GtoLOZne6LZG-12" edge="1">
          <mxGeometry relative="1" as="geometry" />
        </mxCell>
        <mxCell id="-FAHl2pJLtwKHHKzeQm9-47" value="PILHAN = 5" style="strokeWidth=2;html=1;shape=mxgraph.flowchart.decision;whiteSpace=wrap;" parent="1" vertex="1">
          <mxGeometry x="2410" y="605" width="100" height="100" as="geometry" />
        </mxCell>
        <mxCell id="-FAHl2pJLtwKHHKzeQm9-48" value="" style="group" parent="1" vertex="1" connectable="0">
          <mxGeometry x="2430" y="790" width="60" height="60" as="geometry" />
        </mxCell>
        <mxCell id="-FAHl2pJLtwKHHKzeQm9-49" value="" style="verticalLabelPosition=bottom;verticalAlign=top;html=1;shape=mxgraph.flowchart.on-page_reference;" parent="-FAHl2pJLtwKHHKzeQm9-48" vertex="1">
          <mxGeometry width="60" height="60" as="geometry" />
        </mxCell>
        <mxCell id="-FAHl2pJLtwKHHKzeQm9-50" value="10" style="text;html=1;align=center;verticalAlign=middle;resizable=0;points=[];autosize=1;strokeColor=none;fillColor=none;" parent="-FAHl2pJLtwKHHKzeQm9-48" vertex="1">
          <mxGeometry x="10" y="15" width="40" height="30" as="geometry" />
        </mxCell>
        <mxCell id="-FAHl2pJLtwKHHKzeQm9-55" value="" style="verticalLabelPosition=bottom;verticalAlign=top;html=1;shape=mxgraph.flowchart.on-page_reference;" parent="1" vertex="1">
          <mxGeometry x="2255" y="950" width="60" height="60" as="geometry" />
        </mxCell>
        <mxCell id="-FAHl2pJLtwKHHKzeQm9-66" value="" style="edgeStyle=orthogonalEdgeStyle;rounded=0;orthogonalLoop=1;jettySize=auto;html=1;exitX=0.5;exitY=1;exitDx=0;exitDy=0;exitPerimeter=0;" parent="1" source="-FAHl2pJLtwKHHKzeQm9-55" target="-FAHl2pJLtwKHHKzeQm9-63" edge="1">
          <mxGeometry relative="1" as="geometry">
            <mxPoint x="2285" y="1020" as="sourcePoint" />
          </mxGeometry>
        </mxCell>
        <mxCell id="-FAHl2pJLtwKHHKzeQm9-57" value="10" style="text;html=1;align=center;verticalAlign=middle;resizable=0;points=[];autosize=1;strokeColor=none;fillColor=none;" parent="1" vertex="1">
          <mxGeometry x="2265" y="965" width="40" height="30" as="geometry" />
        </mxCell>
        <mxCell id="-FAHl2pJLtwKHHKzeQm9-58" value="" style="group" parent="1" vertex="1" connectable="0">
          <mxGeometry x="2226.25" y="1198" width="117.5" height="80" as="geometry" />
        </mxCell>
        <mxCell id="-FAHl2pJLtwKHHKzeQm9-59" value="&lt;blockquote style=&quot;margin: 0px 20px; border: none; padding: 0px;&quot;&gt;&lt;font size=&quot;1&quot;&gt;TAMPILKAN RIWAYAT PEMBELIAN&lt;/font&gt;&lt;/blockquote&gt;" style="shape=parallelogram;html=1;strokeWidth=2;perimeter=parallelogramPerimeter;whiteSpace=wrap;rounded=1;arcSize=12;size=0.23;" parent="-FAHl2pJLtwKHHKzeQm9-58" vertex="1">
          <mxGeometry x="1.25" width="115" height="70" as="geometry" />
        </mxCell>
        <mxCell id="-FAHl2pJLtwKHHKzeQm9-60" value="" style="endArrow=classic;html=1;rounded=0;exitX=0.75;exitY=1;exitDx=0;exitDy=0;" parent="-FAHl2pJLtwKHHKzeQm9-58" source="-FAHl2pJLtwKHHKzeQm9-59" edge="1">
          <mxGeometry width="50" height="50" relative="1" as="geometry">
            <mxPoint x="-12.5" y="-28" as="sourcePoint" />
            <mxPoint x="118.75" y="70" as="targetPoint" />
          </mxGeometry>
        </mxCell>
        <mxCell id="-FAHl2pJLtwKHHKzeQm9-61" value="END" style="strokeWidth=2;html=1;shape=mxgraph.flowchart.terminator;whiteSpace=wrap;" parent="1" vertex="1">
          <mxGeometry x="2235" y="1310" width="100" height="60" as="geometry" />
        </mxCell>
        <mxCell id="-FAHl2pJLtwKHHKzeQm9-67" value="" style="edgeStyle=orthogonalEdgeStyle;rounded=0;orthogonalLoop=1;jettySize=auto;html=1;" parent="1" source="-FAHl2pJLtwKHHKzeQm9-63" target="-FAHl2pJLtwKHHKzeQm9-59" edge="1">
          <mxGeometry relative="1" as="geometry" />
        </mxCell>
        <mxCell id="-FAHl2pJLtwKHHKzeQm9-68" value="YES" style="edgeLabel;html=1;align=center;verticalAlign=middle;resizable=0;points=[];" parent="-FAHl2pJLtwKHHKzeQm9-67" vertex="1" connectable="0">
          <mxGeometry x="-0.4028" relative="1" as="geometry">
            <mxPoint as="offset" />
          </mxGeometry>
        </mxCell>
        <mxCell id="-FAHl2pJLtwKHHKzeQm9-72" value="" style="edgeStyle=orthogonalEdgeStyle;rounded=0;orthogonalLoop=1;jettySize=auto;html=1;" parent="1" source="-FAHl2pJLtwKHHKzeQm9-63" target="-FAHl2pJLtwKHHKzeQm9-70" edge="1">
          <mxGeometry relative="1" as="geometry" />
        </mxCell>
        <mxCell id="-FAHl2pJLtwKHHKzeQm9-73" value="NO" style="edgeLabel;html=1;align=center;verticalAlign=middle;resizable=0;points=[];" parent="-FAHl2pJLtwKHHKzeQm9-72" vertex="1" connectable="0">
          <mxGeometry x="-0.2525" y="-1" relative="1" as="geometry">
            <mxPoint as="offset" />
          </mxGeometry>
        </mxCell>
        <mxCell id="-FAHl2pJLtwKHHKzeQm9-63" value="APAKAH ADA RIWAYAT?" style="strokeWidth=2;html=1;shape=mxgraph.flowchart.decision;whiteSpace=wrap;" parent="1" vertex="1">
          <mxGeometry x="2235" y="1050" width="100" height="100" as="geometry" />
        </mxCell>
        <mxCell id="-FAHl2pJLtwKHHKzeQm9-69" value="" style="group" parent="1" vertex="1" connectable="0">
          <mxGeometry x="2400" y="1050" width="117.5" height="80" as="geometry" />
        </mxCell>
        <mxCell id="-FAHl2pJLtwKHHKzeQm9-70" value="&lt;blockquote style=&quot;margin: 0px 20px; border: none; padding: 0px;&quot;&gt;&lt;font size=&quot;1&quot;&gt;ANDA BELUM MEMILIKI RIWAYAT PEMBELIAN&lt;/font&gt;&lt;/blockquote&gt;" style="shape=parallelogram;html=1;strokeWidth=2;perimeter=parallelogramPerimeter;whiteSpace=wrap;rounded=1;arcSize=12;size=0.23;" parent="-FAHl2pJLtwKHHKzeQm9-69" vertex="1">
          <mxGeometry x="-20" y="15" width="115" height="70" as="geometry" />
        </mxCell>
        <mxCell id="-FAHl2pJLtwKHHKzeQm9-71" value="" style="endArrow=classic;html=1;rounded=0;exitX=0.75;exitY=1;exitDx=0;exitDy=0;" parent="-FAHl2pJLtwKHHKzeQm9-69" source="-FAHl2pJLtwKHHKzeQm9-70" edge="1">
          <mxGeometry width="50" height="50" relative="1" as="geometry">
            <mxPoint x="-12.5" y="-28" as="sourcePoint" />
            <mxPoint x="110" y="85" as="targetPoint" />
          </mxGeometry>
        </mxCell>
        <mxCell id="-FAHl2pJLtwKHHKzeQm9-74" value="" style="edgeStyle=orthogonalEdgeStyle;rounded=0;orthogonalLoop=1;jettySize=auto;html=1;" parent="1" source="-FAHl2pJLtwKHHKzeQm9-59" target="-FAHl2pJLtwKHHKzeQm9-61" edge="1">
          <mxGeometry relative="1" as="geometry" />
        </mxCell>
        <mxCell id="-FAHl2pJLtwKHHKzeQm9-75" value="" style="endArrow=classic;html=1;rounded=0;exitX=0.5;exitY=1;exitDx=0;exitDy=0;" parent="1" source="-FAHl2pJLtwKHHKzeQm9-4" edge="1">
          <mxGeometry width="50" height="50" relative="1" as="geometry">
            <mxPoint x="1940" y="910" as="sourcePoint" />
            <mxPoint x="1600" y="900" as="targetPoint" />
            <Array as="points">
              <mxPoint x="1764" y="900" />
            </Array>
          </mxGeometry>
        </mxCell>
        <mxCell id="-FAHl2pJLtwKHHKzeQm9-76" value="" style="endArrow=classic;html=1;rounded=0;exitX=0.5;exitY=1;exitDx=0;exitDy=0;" parent="1" edge="1">
          <mxGeometry width="50" height="50" relative="1" as="geometry">
            <mxPoint x="1952.5" y="850" as="sourcePoint" />
            <mxPoint x="1760" y="900" as="targetPoint" />
            <Array as="points">
              <mxPoint x="1953" y="900" />
            </Array>
          </mxGeometry>
        </mxCell>
        <mxCell id="-FAHl2pJLtwKHHKzeQm9-77" value="" style="endArrow=classic;html=1;rounded=0;exitX=0.5;exitY=1;exitDx=0;exitDy=0;" parent="1" edge="1">
          <mxGeometry width="50" height="50" relative="1" as="geometry">
            <mxPoint x="2112.5" y="850" as="sourcePoint" />
            <mxPoint x="1920" y="900" as="targetPoint" />
            <Array as="points">
              <mxPoint x="2113" y="900" />
            </Array>
          </mxGeometry>
        </mxCell>
        <mxCell id="-FAHl2pJLtwKHHKzeQm9-78" value="" style="endArrow=classic;html=1;rounded=0;exitX=0.5;exitY=1;exitDx=0;exitDy=0;" parent="1" edge="1">
          <mxGeometry width="50" height="50" relative="1" as="geometry">
            <mxPoint x="2282.5" y="850" as="sourcePoint" />
            <mxPoint x="2090" y="900" as="targetPoint" />
            <Array as="points">
              <mxPoint x="2283" y="900" />
            </Array>
          </mxGeometry>
        </mxCell>
        <mxCell id="-FAHl2pJLtwKHHKzeQm9-79" value="" style="endArrow=classic;html=1;rounded=0;exitX=0.5;exitY=1;exitDx=0;exitDy=0;" parent="1" edge="1">
          <mxGeometry width="50" height="50" relative="1" as="geometry">
            <mxPoint x="2462.5" y="850" as="sourcePoint" />
            <mxPoint x="2270" y="900" as="targetPoint" />
            <Array as="points">
              <mxPoint x="2463" y="900" />
            </Array>
          </mxGeometry>
        </mxCell>
        <mxCell id="-FAHl2pJLtwKHHKzeQm9-80" value="" style="group" parent="1" vertex="1" connectable="0">
          <mxGeometry x="460" y="510" width="130" height="60" as="geometry" />
        </mxCell>
        <mxCell id="-FAHl2pJLtwKHHKzeQm9-81" value="TAMPILKAN PRODUK" style="shape=parallelogram;html=1;strokeWidth=2;perimeter=parallelogramPerimeter;whiteSpace=wrap;rounded=1;arcSize=12;size=0.23;" parent="-FAHl2pJLtwKHHKzeQm9-80" vertex="1">
          <mxGeometry width="108.33333333333333" height="60" as="geometry" />
        </mxCell>
        <mxCell id="-FAHl2pJLtwKHHKzeQm9-82" value="" style="endArrow=classic;html=1;rounded=0;exitX=0.75;exitY=1;exitDx=0;exitDy=0;" parent="-FAHl2pJLtwKHHKzeQm9-80" source="-FAHl2pJLtwKHHKzeQm9-81" edge="1">
          <mxGeometry width="50" height="50" relative="1" as="geometry">
            <mxPoint x="-32.5" y="-60" as="sourcePoint" />
            <mxPoint x="130" y="60" as="targetPoint" />
          </mxGeometry>
        </mxCell>
        <mxCell id="-FAHl2pJLtwKHHKzeQm9-83" value="" style="group" parent="1" vertex="1" connectable="0">
          <mxGeometry x="350" y="710" width="60" height="60" as="geometry" />
        </mxCell>
        <mxCell id="-FAHl2pJLtwKHHKzeQm9-84" value="" style="verticalLabelPosition=bottom;verticalAlign=top;html=1;shape=mxgraph.flowchart.on-page_reference;" parent="-FAHl2pJLtwKHHKzeQm9-83" vertex="1">
          <mxGeometry width="60" height="60" as="geometry" />
        </mxCell>
        <mxCell id="-FAHl2pJLtwKHHKzeQm9-85" value="2" style="text;html=1;align=center;verticalAlign=middle;resizable=0;points=[];autosize=1;strokeColor=none;fillColor=none;" parent="-FAHl2pJLtwKHHKzeQm9-83" vertex="1">
          <mxGeometry x="15" y="15" width="30" height="30" as="geometry" />
        </mxCell>
        <mxCell id="-FAHl2pJLtwKHHKzeQm9-87" value="" style="edgeStyle=orthogonalEdgeStyle;rounded=0;orthogonalLoop=1;jettySize=auto;html=1;exitX=0.5;exitY=1;exitDx=0;exitDy=0;exitPerimeter=0;entryX=0.5;entryY=0;entryDx=0;entryDy=0;" parent="1" source="-FAHl2pJLtwKHHKzeQm9-84" target="-FAHl2pJLtwKHHKzeQm9-89" edge="1">
          <mxGeometry relative="1" as="geometry">
            <mxPoint x="380" y="780" as="sourcePoint" />
            <mxPoint x="380" y="815" as="targetPoint" />
          </mxGeometry>
        </mxCell>
        <mxCell id="-FAHl2pJLtwKHHKzeQm9-88" value="" style="endArrow=classic;html=1;rounded=0;entryX=0.25;entryY=0;entryDx=0;entryDy=0;" parent="1" target="u7DOHJphOixYkT2y7QyJ-3" edge="1">
          <mxGeometry width="50" height="50" relative="1" as="geometry">
            <mxPoint x="290" y="150" as="sourcePoint" />
            <mxPoint x="550" y="290" as="targetPoint" />
            <Array as="points">
              <mxPoint x="290" y="150" />
            </Array>
          </mxGeometry>
        </mxCell>
        <mxCell id="-FAHl2pJLtwKHHKzeQm9-93" value="" style="group" parent="1" vertex="1" connectable="0">
          <mxGeometry x="300" y="815" width="152.5" height="85" as="geometry" />
        </mxCell>
        <mxCell id="-FAHl2pJLtwKHHKzeQm9-89" value="MASUKAN NAMA PRODUK" style="shape=parallelogram;html=1;strokeWidth=2;perimeter=parallelogramPerimeter;whiteSpace=wrap;rounded=1;arcSize=12;size=0.23;align=center;" parent="-FAHl2pJLtwKHHKzeQm9-93" vertex="1">
          <mxGeometry x="7.5" width="145" height="85" as="geometry" />
        </mxCell>
        <mxCell id="-FAHl2pJLtwKHHKzeQm9-92" value="" style="endArrow=classic;html=1;rounded=0;entryX=0.25;entryY=0;entryDx=0;entryDy=0;" parent="-FAHl2pJLtwKHHKzeQm9-93" target="-FAHl2pJLtwKHHKzeQm9-89" edge="1">
          <mxGeometry width="50" height="50" relative="1" as="geometry">
            <mxPoint as="sourcePoint" />
            <mxPoint x="210" y="15" as="targetPoint" />
          </mxGeometry>
        </mxCell>
        <mxCell id="-FAHl2pJLtwKHHKzeQm9-94" value="" style="group" parent="1" vertex="1" connectable="0">
          <mxGeometry x="298" y="960" width="152.5" height="85" as="geometry" />
        </mxCell>
        <mxCell id="-FAHl2pJLtwKHHKzeQm9-95" value="MASUKAN HARGA&amp;nbsp;&lt;div&gt;BELI&lt;/div&gt;" style="shape=parallelogram;html=1;strokeWidth=2;perimeter=parallelogramPerimeter;whiteSpace=wrap;rounded=1;arcSize=12;size=0.23;align=center;" parent="-FAHl2pJLtwKHHKzeQm9-94" vertex="1">
          <mxGeometry x="9.5" width="145" height="85" as="geometry" />
        </mxCell>
        <mxCell id="-FAHl2pJLtwKHHKzeQm9-96" value="" style="endArrow=classic;html=1;rounded=0;entryX=0.25;entryY=0;entryDx=0;entryDy=0;" parent="-FAHl2pJLtwKHHKzeQm9-94" target="-FAHl2pJLtwKHHKzeQm9-95" edge="1">
          <mxGeometry width="50" height="50" relative="1" as="geometry">
            <mxPoint as="sourcePoint" />
            <mxPoint x="210" y="15" as="targetPoint" />
          </mxGeometry>
        </mxCell>
        <mxCell id="-FAHl2pJLtwKHHKzeQm9-97" value="" style="group" parent="1" vertex="1" connectable="0">
          <mxGeometry x="298" y="1260" width="152.5" height="85" as="geometry" />
        </mxCell>
        <mxCell id="-FAHl2pJLtwKHHKzeQm9-98" value="MASUKAN HARGA&amp;nbsp;&lt;div&gt;JUAL&lt;/div&gt;" style="shape=parallelogram;html=1;strokeWidth=2;perimeter=parallelogramPerimeter;whiteSpace=wrap;rounded=1;arcSize=12;size=0.23;align=center;" parent="-FAHl2pJLtwKHHKzeQm9-97" vertex="1">
          <mxGeometry x="9.5" width="145" height="85" as="geometry" />
        </mxCell>
        <mxCell id="-FAHl2pJLtwKHHKzeQm9-99" value="" style="endArrow=classic;html=1;rounded=0;entryX=0.25;entryY=0;entryDx=0;entryDy=0;" parent="-FAHl2pJLtwKHHKzeQm9-97" target="-FAHl2pJLtwKHHKzeQm9-98" edge="1">
          <mxGeometry width="50" height="50" relative="1" as="geometry">
            <mxPoint as="sourcePoint" />
            <mxPoint x="210" y="15" as="targetPoint" />
          </mxGeometry>
        </mxCell>
        <mxCell id="-FAHl2pJLtwKHHKzeQm9-100" value="" style="group" parent="1" vertex="1" connectable="0">
          <mxGeometry x="298" y="1110" width="152.5" height="85" as="geometry" />
        </mxCell>
        <mxCell id="-FAHl2pJLtwKHHKzeQm9-101" value="MASUKAN&amp;nbsp;&lt;div&gt;STOK&lt;/div&gt;" style="shape=parallelogram;html=1;strokeWidth=2;perimeter=parallelogramPerimeter;whiteSpace=wrap;rounded=1;arcSize=12;size=0.23;align=center;" parent="-FAHl2pJLtwKHHKzeQm9-100" vertex="1">
          <mxGeometry x="9.5" width="145" height="85" as="geometry" />
        </mxCell>
        <mxCell id="-FAHl2pJLtwKHHKzeQm9-102" value="" style="endArrow=classic;html=1;rounded=0;entryX=0.25;entryY=0;entryDx=0;entryDy=0;" parent="-FAHl2pJLtwKHHKzeQm9-100" target="-FAHl2pJLtwKHHKzeQm9-101" edge="1">
          <mxGeometry width="50" height="50" relative="1" as="geometry">
            <mxPoint as="sourcePoint" />
            <mxPoint x="210" y="15" as="targetPoint" />
          </mxGeometry>
        </mxCell>
        <mxCell id="-FAHl2pJLtwKHHKzeQm9-103" value="" style="edgeStyle=orthogonalEdgeStyle;rounded=0;orthogonalLoop=1;jettySize=auto;html=1;" parent="1" source="-FAHl2pJLtwKHHKzeQm9-89" target="-FAHl2pJLtwKHHKzeQm9-95" edge="1">
          <mxGeometry relative="1" as="geometry" />
        </mxCell>
        <mxCell id="-FAHl2pJLtwKHHKzeQm9-104" value="" style="edgeStyle=orthogonalEdgeStyle;rounded=0;orthogonalLoop=1;jettySize=auto;html=1;" parent="1" source="-FAHl2pJLtwKHHKzeQm9-95" target="-FAHl2pJLtwKHHKzeQm9-101" edge="1">
          <mxGeometry relative="1" as="geometry" />
        </mxCell>
        <mxCell id="-FAHl2pJLtwKHHKzeQm9-105" value="" style="edgeStyle=orthogonalEdgeStyle;rounded=0;orthogonalLoop=1;jettySize=auto;html=1;" parent="1" source="-FAHl2pJLtwKHHKzeQm9-101" target="-FAHl2pJLtwKHHKzeQm9-98" edge="1">
          <mxGeometry relative="1" as="geometry" />
        </mxCell>
        <mxCell id="-FAHl2pJLtwKHHKzeQm9-111" value="" style="edgeStyle=orthogonalEdgeStyle;rounded=0;orthogonalLoop=1;jettySize=auto;html=1;" parent="1" source="-FAHl2pJLtwKHHKzeQm9-106" target="-FAHl2pJLtwKHHKzeQm9-109" edge="1">
          <mxGeometry relative="1" as="geometry" />
        </mxCell>
        <mxCell id="-FAHl2pJLtwKHHKzeQm9-106" value="MASUKAN DATA" style="rounded=1;whiteSpace=wrap;html=1;absoluteArcSize=1;arcSize=14;strokeWidth=2;" parent="1" vertex="1">
          <mxGeometry x="330" y="1390" width="100" height="30" as="geometry" />
        </mxCell>
        <mxCell id="-FAHl2pJLtwKHHKzeQm9-107" value="" style="edgeStyle=orthogonalEdgeStyle;rounded=0;orthogonalLoop=1;jettySize=auto;html=1;" parent="1" source="-FAHl2pJLtwKHHKzeQm9-98" target="-FAHl2pJLtwKHHKzeQm9-106" edge="1">
          <mxGeometry relative="1" as="geometry" />
        </mxCell>
        <mxCell id="-FAHl2pJLtwKHHKzeQm9-108" value="" style="group" parent="1" vertex="1" connectable="0">
          <mxGeometry x="298" y="1470" width="152.5" height="85" as="geometry" />
        </mxCell>
        <mxCell id="-FAHl2pJLtwKHHKzeQm9-109" value="BARANG BERHASIL DITAMBAHKAN" style="shape=parallelogram;html=1;strokeWidth=2;perimeter=parallelogramPerimeter;whiteSpace=wrap;rounded=1;arcSize=12;size=0.23;align=center;" parent="-FAHl2pJLtwKHHKzeQm9-108" vertex="1">
          <mxGeometry x="9.5" width="145" height="85" as="geometry" />
        </mxCell>
        <mxCell id="-FAHl2pJLtwKHHKzeQm9-112" value="" style="endArrow=classic;html=1;rounded=0;exitX=0.75;exitY=1;exitDx=0;exitDy=0;" parent="1" source="-FAHl2pJLtwKHHKzeQm9-109" edge="1">
          <mxGeometry width="50" height="50" relative="1" as="geometry">
            <mxPoint x="450" y="1440" as="sourcePoint" />
            <mxPoint x="460" y="1555" as="targetPoint" />
          </mxGeometry>
        </mxCell>
        <mxCell id="-FAHl2pJLtwKHHKzeQm9-113" value="END" style="strokeWidth=2;html=1;shape=mxgraph.flowchart.terminator;whiteSpace=wrap;" parent="1" vertex="1">
          <mxGeometry x="330" y="1600" width="100" height="60" as="geometry" />
        </mxCell>
        <mxCell id="-FAHl2pJLtwKHHKzeQm9-114" value="" style="edgeStyle=orthogonalEdgeStyle;rounded=0;orthogonalLoop=1;jettySize=auto;html=1;" parent="1" source="-FAHl2pJLtwKHHKzeQm9-109" target="-FAHl2pJLtwKHHKzeQm9-113" edge="1">
          <mxGeometry relative="1" as="geometry" />
        </mxCell>
        <mxCell id="-FAHl2pJLtwKHHKzeQm9-115" value="" style="group" parent="1" vertex="1" connectable="0">
          <mxGeometry x="570" y="710" width="60" height="60" as="geometry" />
        </mxCell>
        <mxCell id="-FAHl2pJLtwKHHKzeQm9-116" value="" style="verticalLabelPosition=bottom;verticalAlign=top;html=1;shape=mxgraph.flowchart.on-page_reference;" parent="-FAHl2pJLtwKHHKzeQm9-115" vertex="1">
          <mxGeometry width="60" height="60" as="geometry" />
        </mxCell>
        <mxCell id="-FAHl2pJLtwKHHKzeQm9-117" value="3" style="text;html=1;align=center;verticalAlign=middle;resizable=0;points=[];autosize=1;strokeColor=none;fillColor=none;" parent="-FAHl2pJLtwKHHKzeQm9-115" vertex="1">
          <mxGeometry x="15" y="15" width="30" height="30" as="geometry" />
        </mxCell>
        <mxCell id="-FAHl2pJLtwKHHKzeQm9-118" value="" style="edgeStyle=orthogonalEdgeStyle;rounded=0;orthogonalLoop=1;jettySize=auto;html=1;exitX=0.5;exitY=1;exitDx=0;exitDy=0;exitPerimeter=0;entryX=0.5;entryY=0;entryDx=0;entryDy=0;" parent="1" source="-FAHl2pJLtwKHHKzeQm9-116" target="-FAHl2pJLtwKHHKzeQm9-120" edge="1">
          <mxGeometry relative="1" as="geometry">
            <mxPoint x="600" y="780" as="sourcePoint" />
            <mxPoint x="600" y="815" as="targetPoint" />
          </mxGeometry>
        </mxCell>
        <mxCell id="-FAHl2pJLtwKHHKzeQm9-119" value="" style="group" parent="1" vertex="1" connectable="0">
          <mxGeometry x="520" y="815" width="152.5" height="85" as="geometry" />
        </mxCell>
        <mxCell id="-FAHl2pJLtwKHHKzeQm9-120" value="&lt;blockquote style=&quot;margin: 0px 20px; border: none; padding: 0px;&quot;&gt;MASUKAN INDEX YANG MAU DI UPDATE&lt;/blockquote&gt;" style="shape=parallelogram;html=1;strokeWidth=2;perimeter=parallelogramPerimeter;whiteSpace=wrap;rounded=1;arcSize=12;size=0.23;align=center;" parent="-FAHl2pJLtwKHHKzeQm9-119" vertex="1">
          <mxGeometry x="7.5" width="145" height="85" as="geometry" />
        </mxCell>
        <mxCell id="-FAHl2pJLtwKHHKzeQm9-121" value="" style="endArrow=classic;html=1;rounded=0;entryX=0.25;entryY=0;entryDx=0;entryDy=0;" parent="-FAHl2pJLtwKHHKzeQm9-119" target="-FAHl2pJLtwKHHKzeQm9-120" edge="1">
          <mxGeometry width="50" height="50" relative="1" as="geometry">
            <mxPoint as="sourcePoint" />
            <mxPoint x="210" y="15" as="targetPoint" />
          </mxGeometry>
        </mxCell>
        <mxCell id="-FAHl2pJLtwKHHKzeQm9-122" value="" style="group" parent="1" vertex="1" connectable="0">
          <mxGeometry x="500" y="960" width="152.5" height="85" as="geometry" />
        </mxCell>
        <mxCell id="-FAHl2pJLtwKHHKzeQm9-123" value="MASUKAN HARGA&lt;div&gt;&amp;nbsp;BELI BARU&lt;/div&gt;" style="shape=parallelogram;html=1;strokeWidth=2;perimeter=parallelogramPerimeter;whiteSpace=wrap;rounded=1;arcSize=12;size=0.23;align=center;" parent="-FAHl2pJLtwKHHKzeQm9-122" vertex="1">
          <mxGeometry x="27.5" width="145" height="85" as="geometry" />
        </mxCell>
        <mxCell id="-FAHl2pJLtwKHHKzeQm9-124" value="" style="endArrow=classic;html=1;rounded=0;entryX=0.25;entryY=0;entryDx=0;entryDy=0;" parent="-FAHl2pJLtwKHHKzeQm9-122" target="-FAHl2pJLtwKHHKzeQm9-123" edge="1">
          <mxGeometry width="50" height="50" relative="1" as="geometry">
            <mxPoint as="sourcePoint" />
            <mxPoint x="210" y="15" as="targetPoint" />
          </mxGeometry>
        </mxCell>
        <mxCell id="-FAHl2pJLtwKHHKzeQm9-125" value="" style="group" parent="1" vertex="1" connectable="0">
          <mxGeometry x="500" y="1260" width="152.5" height="85" as="geometry" />
        </mxCell>
        <mxCell id="-FAHl2pJLtwKHHKzeQm9-126" value="MASUKAN HARGA&lt;div&gt;&amp;nbsp;JUAL BARU&lt;/div&gt;" style="shape=parallelogram;html=1;strokeWidth=2;perimeter=parallelogramPerimeter;whiteSpace=wrap;rounded=1;arcSize=12;size=0.23;align=center;" parent="-FAHl2pJLtwKHHKzeQm9-125" vertex="1">
          <mxGeometry x="27.5" width="145" height="85" as="geometry" />
        </mxCell>
        <mxCell id="-FAHl2pJLtwKHHKzeQm9-127" value="" style="endArrow=classic;html=1;rounded=0;entryX=0.25;entryY=0;entryDx=0;entryDy=0;" parent="-FAHl2pJLtwKHHKzeQm9-125" target="-FAHl2pJLtwKHHKzeQm9-126" edge="1">
          <mxGeometry width="50" height="50" relative="1" as="geometry">
            <mxPoint as="sourcePoint" />
            <mxPoint x="210" y="15" as="targetPoint" />
          </mxGeometry>
        </mxCell>
        <mxCell id="-FAHl2pJLtwKHHKzeQm9-128" value="" style="group" parent="1" vertex="1" connectable="0">
          <mxGeometry x="500" y="1110" width="152.5" height="85" as="geometry" />
        </mxCell>
        <mxCell id="-FAHl2pJLtwKHHKzeQm9-129" value="MASUKAN STOK&amp;nbsp;&lt;div&gt;BARU&lt;/div&gt;" style="shape=parallelogram;html=1;strokeWidth=2;perimeter=parallelogramPerimeter;whiteSpace=wrap;rounded=1;arcSize=12;size=0.23;align=center;" parent="-FAHl2pJLtwKHHKzeQm9-128" vertex="1">
          <mxGeometry x="27.5" width="145" height="85" as="geometry" />
        </mxCell>
        <mxCell id="-FAHl2pJLtwKHHKzeQm9-130" value="" style="endArrow=classic;html=1;rounded=0;entryX=0.25;entryY=0;entryDx=0;entryDy=0;" parent="-FAHl2pJLtwKHHKzeQm9-128" target="-FAHl2pJLtwKHHKzeQm9-129" edge="1">
          <mxGeometry width="50" height="50" relative="1" as="geometry">
            <mxPoint as="sourcePoint" />
            <mxPoint x="210" y="15" as="targetPoint" />
          </mxGeometry>
        </mxCell>
        <mxCell id="-FAHl2pJLtwKHHKzeQm9-131" value="" style="edgeStyle=orthogonalEdgeStyle;rounded=0;orthogonalLoop=1;jettySize=auto;html=1;" parent="1" source="-FAHl2pJLtwKHHKzeQm9-120" target="-FAHl2pJLtwKHHKzeQm9-123" edge="1">
          <mxGeometry relative="1" as="geometry" />
        </mxCell>
        <mxCell id="-FAHl2pJLtwKHHKzeQm9-132" value="" style="edgeStyle=orthogonalEdgeStyle;rounded=0;orthogonalLoop=1;jettySize=auto;html=1;" parent="1" source="-FAHl2pJLtwKHHKzeQm9-123" target="-FAHl2pJLtwKHHKzeQm9-129" edge="1">
          <mxGeometry relative="1" as="geometry" />
        </mxCell>
        <mxCell id="-FAHl2pJLtwKHHKzeQm9-133" value="" style="edgeStyle=orthogonalEdgeStyle;rounded=0;orthogonalLoop=1;jettySize=auto;html=1;" parent="1" source="-FAHl2pJLtwKHHKzeQm9-129" target="-FAHl2pJLtwKHHKzeQm9-126" edge="1">
          <mxGeometry relative="1" as="geometry" />
        </mxCell>
        <mxCell id="-FAHl2pJLtwKHHKzeQm9-134" value="" style="edgeStyle=orthogonalEdgeStyle;rounded=0;orthogonalLoop=1;jettySize=auto;html=1;" parent="1" source="-FAHl2pJLtwKHHKzeQm9-135" target="-FAHl2pJLtwKHHKzeQm9-138" edge="1">
          <mxGeometry relative="1" as="geometry" />
        </mxCell>
        <mxCell id="-FAHl2pJLtwKHHKzeQm9-135" value="UPDATE DATA" style="rounded=1;whiteSpace=wrap;html=1;absoluteArcSize=1;arcSize=14;strokeWidth=2;" parent="1" vertex="1">
          <mxGeometry x="550" y="1390" width="100" height="30" as="geometry" />
        </mxCell>
        <mxCell id="-FAHl2pJLtwKHHKzeQm9-136" value="" style="edgeStyle=orthogonalEdgeStyle;rounded=0;orthogonalLoop=1;jettySize=auto;html=1;" parent="1" source="-FAHl2pJLtwKHHKzeQm9-126" target="-FAHl2pJLtwKHHKzeQm9-135" edge="1">
          <mxGeometry relative="1" as="geometry" />
        </mxCell>
        <mxCell id="-FAHl2pJLtwKHHKzeQm9-137" value="" style="group" parent="1" vertex="1" connectable="0">
          <mxGeometry x="500" y="1470" width="152.5" height="85" as="geometry" />
        </mxCell>
        <mxCell id="-FAHl2pJLtwKHHKzeQm9-138" value="DATA BERHASIL DI UPDATE" style="shape=parallelogram;html=1;strokeWidth=2;perimeter=parallelogramPerimeter;whiteSpace=wrap;rounded=1;arcSize=12;size=0.23;align=center;" parent="-FAHl2pJLtwKHHKzeQm9-137" vertex="1">
          <mxGeometry x="27.5" width="145" height="85" as="geometry" />
        </mxCell>
        <mxCell id="-FAHl2pJLtwKHHKzeQm9-139" value="" style="endArrow=classic;html=1;rounded=0;exitX=0.75;exitY=1;exitDx=0;exitDy=0;" parent="1" source="-FAHl2pJLtwKHHKzeQm9-138" edge="1">
          <mxGeometry width="50" height="50" relative="1" as="geometry">
            <mxPoint x="670" y="1440" as="sourcePoint" />
            <mxPoint x="680" y="1555" as="targetPoint" />
          </mxGeometry>
        </mxCell>
        <mxCell id="-FAHl2pJLtwKHHKzeQm9-140" value="END" style="strokeWidth=2;html=1;shape=mxgraph.flowchart.terminator;whiteSpace=wrap;" parent="1" vertex="1">
          <mxGeometry x="550" y="1600" width="100" height="60" as="geometry" />
        </mxCell>
        <mxCell id="-FAHl2pJLtwKHHKzeQm9-141" value="" style="edgeStyle=orthogonalEdgeStyle;rounded=0;orthogonalLoop=1;jettySize=auto;html=1;" parent="1" source="-FAHl2pJLtwKHHKzeQm9-138" target="-FAHl2pJLtwKHHKzeQm9-140" edge="1">
          <mxGeometry relative="1" as="geometry" />
        </mxCell>
        <mxCell id="-FAHl2pJLtwKHHKzeQm9-142" value="" style="group" parent="1" vertex="1" connectable="0">
          <mxGeometry x="790" y="710" width="60" height="60" as="geometry" />
        </mxCell>
        <mxCell id="-FAHl2pJLtwKHHKzeQm9-143" value="" style="verticalLabelPosition=bottom;verticalAlign=top;html=1;shape=mxgraph.flowchart.on-page_reference;" parent="-FAHl2pJLtwKHHKzeQm9-142" vertex="1">
          <mxGeometry width="60" height="60" as="geometry" />
        </mxCell>
        <mxCell id="-FAHl2pJLtwKHHKzeQm9-144" value="4" style="text;html=1;align=center;verticalAlign=middle;resizable=0;points=[];autosize=1;strokeColor=none;fillColor=none;" parent="-FAHl2pJLtwKHHKzeQm9-142" vertex="1">
          <mxGeometry x="15" y="15" width="30" height="30" as="geometry" />
        </mxCell>
        <mxCell id="-FAHl2pJLtwKHHKzeQm9-145" value="" style="group" parent="1" vertex="1" connectable="0">
          <mxGeometry x="730" y="820" width="152.5" height="85" as="geometry" />
        </mxCell>
        <mxCell id="-FAHl2pJLtwKHHKzeQm9-146" value="&lt;blockquote style=&quot;margin: 0px 20px; border: none; padding: 0px;&quot;&gt;MASUKAN INDEX YANG MAU DI HAPUS&lt;/blockquote&gt;" style="shape=parallelogram;html=1;strokeWidth=2;perimeter=parallelogramPerimeter;whiteSpace=wrap;rounded=1;arcSize=12;size=0.23;align=center;" parent="-FAHl2pJLtwKHHKzeQm9-145" vertex="1">
          <mxGeometry x="17.5" width="145" height="85" as="geometry" />
        </mxCell>
        <mxCell id="-FAHl2pJLtwKHHKzeQm9-147" value="" style="endArrow=classic;html=1;rounded=0;entryX=0.25;entryY=0;entryDx=0;entryDy=0;" parent="-FAHl2pJLtwKHHKzeQm9-145" target="-FAHl2pJLtwKHHKzeQm9-146" edge="1">
          <mxGeometry width="50" height="50" relative="1" as="geometry">
            <mxPoint as="sourcePoint" />
            <mxPoint x="210" y="15" as="targetPoint" />
          </mxGeometry>
        </mxCell>
        <mxCell id="-FAHl2pJLtwKHHKzeQm9-148" value="" style="edgeStyle=orthogonalEdgeStyle;rounded=0;orthogonalLoop=1;jettySize=auto;html=1;exitX=0.5;exitY=1;exitDx=0;exitDy=0;exitPerimeter=0;" parent="1" source="-FAHl2pJLtwKHHKzeQm9-143" target="-FAHl2pJLtwKHHKzeQm9-146" edge="1">
          <mxGeometry relative="1" as="geometry">
            <mxPoint x="820" y="780" as="sourcePoint" />
          </mxGeometry>
        </mxCell>
        <mxCell id="-FAHl2pJLtwKHHKzeQm9-153" value="" style="edgeStyle=orthogonalEdgeStyle;rounded=0;orthogonalLoop=1;jettySize=auto;html=1;" parent="1" source="-FAHl2pJLtwKHHKzeQm9-149" target="-FAHl2pJLtwKHHKzeQm9-151" edge="1">
          <mxGeometry relative="1" as="geometry" />
        </mxCell>
        <mxCell id="-FAHl2pJLtwKHHKzeQm9-149" value="HAPUS DATA" style="rounded=1;whiteSpace=wrap;html=1;absoluteArcSize=1;arcSize=14;strokeWidth=2;" parent="1" vertex="1">
          <mxGeometry x="770" y="960" width="100" height="30" as="geometry" />
        </mxCell>
        <mxCell id="-FAHl2pJLtwKHHKzeQm9-150" value="" style="edgeStyle=orthogonalEdgeStyle;rounded=0;orthogonalLoop=1;jettySize=auto;html=1;" parent="1" source="-FAHl2pJLtwKHHKzeQm9-146" target="-FAHl2pJLtwKHHKzeQm9-149" edge="1">
          <mxGeometry relative="1" as="geometry" />
        </mxCell>
        <mxCell id="-FAHl2pJLtwKHHKzeQm9-155" value="" style="edgeStyle=orthogonalEdgeStyle;rounded=0;orthogonalLoop=1;jettySize=auto;html=1;" parent="1" source="-FAHl2pJLtwKHHKzeQm9-151" target="-FAHl2pJLtwKHHKzeQm9-154" edge="1">
          <mxGeometry relative="1" as="geometry" />
        </mxCell>
        <mxCell id="-FAHl2pJLtwKHHKzeQm9-151" value="DATA BERHASIL DI HAPUS" style="shape=parallelogram;html=1;strokeWidth=2;perimeter=parallelogramPerimeter;whiteSpace=wrap;rounded=1;arcSize=12;size=0.23;align=center;" parent="1" vertex="1">
          <mxGeometry x="747.5" y="1113" width="145" height="85" as="geometry" />
        </mxCell>
        <mxCell id="-FAHl2pJLtwKHHKzeQm9-152" value="" style="endArrow=classic;html=1;rounded=0;exitX=0.75;exitY=1;exitDx=0;exitDy=0;" parent="1" source="-FAHl2pJLtwKHHKzeQm9-151" edge="1">
          <mxGeometry width="50" height="50" relative="1" as="geometry">
            <mxPoint x="872.5" y="1082.13" as="sourcePoint" />
            <mxPoint x="900" y="1200" as="targetPoint" />
          </mxGeometry>
        </mxCell>
        <mxCell id="-FAHl2pJLtwKHHKzeQm9-154" value="END" style="strokeWidth=2;html=1;shape=mxgraph.flowchart.terminator;whiteSpace=wrap;" parent="1" vertex="1">
          <mxGeometry x="770" y="1250" width="100" height="60" as="geometry" />
        </mxCell>
      </root>
    </mxGraphModel>
  </diagram>
</mxfile>
